<?xml version="1.0" encoding="utf-8"?>
<!-- Generator: Adobe Illustrator 24.1.0, SVG Export Plug-In . SVG Version: 6.00 Build 0)  -->
<svg version="1.1" id="Warstwa_1" xmlns="http://www.w3.org/2000/svg" xmlns:xlink="http://www.w3.org/1999/xlink" x="0px" y="0px"
	 viewBox="0 0 821.9 611.1" style="enable-background:new 0 0 821.9 611.1;" xml:space="preserve">
<style type="text/css">
	.st0{fill:#C18D6F;}
	.st1{fill:#B3664D;}
	.st2{fill:#C5A586;}
	.st3{fill:#FEE7D4;}
	.st4{fill:#F6E5D5;}
	.st5{fill:#DD883F;}
	.st6{fill:#C9765B;}
	.st7{fill:#FBF1EE;}
	.st8{fill:#BA766A;}
	.st9{fill:#CC8766;}
	.st10{fill:#ECDAD2;}
	.st11{fill:#FAF1E7;}
	.st12{fill:#DA8565;}
	.st13{fill:#FFF9F5;}
	.st14{fill:#D6684F;}
	.st15{fill:#FFFFFF;}
</style>
<rect class="st0" width="821.9" height="611.1"/>
<g>
	<g>
		<g>
			<g>
				<path class="st15" d="M405.6,252.3c1.5-2,2.5-3.6,3.1-4.8c0.5-1.1,0.5-1.3,0.2-1.3c-0.2,0-0.4,0.3-0.6,0.8
					c-0.5,1.2-2.8,4.5-4.3,6.3c-0.7,0.9-1.4,1.7-1.4,1.8c0,0.1,0.1,0.2,0.3,0.2C403.1,255.4,403.8,254.7,405.6,252.3z"/>
			</g>
		</g>
		<g>
			<g>
				<path class="st15" d="M413.5,304c-23.5,0-42.6-19.1-42.6-42.6v-26.8c0-23.5,19.1-42.6,42.6-42.6c23.5,0,42.6,19.1,42.6,42.6
					v26.8C456.1,284.9,437,304,413.5,304z M413.5,193.1c-22.9,0-41.6,18.6-41.6,41.6v26.8c0,22.9,18.6,41.6,41.6,41.6h0
					c22.9,0,41.6-18.6,41.6-41.6v-26.8C455.1,211.7,436.5,193.1,413.5,193.1z"/>
			</g>
		</g>
		<g>
			<g>
				<g>
					<path class="st15" d="M440.4,245.3c-0.1-0.6-0.9-1.5-1.6-1.9c-1.3-0.7-3-0.5-5.2,0.4c-0.7,0.3-1.3,0.6-1.4,0.5
						c0,0,0.4-0.9,1-1.9c2.1-3.5,3.3-6.6,3.3-8.3c0-0.4,0.1-0.5,0.3-0.6c0.5-0.2,1.5-1,1.8-1.5c0.7-1.1,0.2-1.8-1.2-2.2l-0.7-0.2
						l-0.1-4.1c-0.1-3.9,0-5.2,0.4-8.8c0.2-1.9-0.1-2.8-1.1-3.3c-0.6-0.3-1.6-0.3-2.1-0.1c-0.9,0.5-2.1,1.9-2.6,3
						c-0.2,0.4-0.2,0.5-0.4,0.3c-0.1-0.1-0.1-0.4-0.1-0.6c0-0.5-0.8-3.6-1.1-4.2c-0.5-1-1.6-1.4-2.8-0.9c-1.2,0.4-2.2,2.1-2.5,4
						c-0.1,0.9-0.1,1.5,0.1,3.1c0.3,2.1,0.3,3.4,0.1,2.8c-0.1-0.2-0.5-1.4-0.9-2.7c-1-3-1.2-3.4-2.5-3.5c-1.2-0.1-1.7,0.3-2.3,1.8
						c-0.8,1.9-0.8,4.1,0,7.5c0.1,0.5,0.2,1.5,0.2,2.3c-0.1,2.6-0.5,6.8-0.7,7.3c-0.2,0.4-0.2,0.4-1,0.3c-0.4,0-0.8-0.1-0.9-0.1
						c0,0,0-0.7,0.1-1.5c0.2-1.5,0.1-2.3-0.5-4.8c-0.2-0.7-0.6-2.5-0.9-3.9c-0.7-3-0.9-3.5-1.5-3.9c-1.3-0.8-2.8,0.2-3.3,2.3
						c-0.4,1.8-0.3,3.4,0.4,7.3c0.2,0.9,0.2,1.1-0.3,2.9c-0.1,0.5-0.2,0.5-1,0.7c-0.5,0.1-2.6,0.8-4.7,1.7c-2.1,0.8-4.3,1.6-4.9,1.8
						c-2.4,0.7-2.8,1.1-6.3,5.5c-2,2.5-4.7,5.8-5.6,6.8c-1,1.1-2.8,3.8-3.7,5.5c-0.8,1.4-2.9,4.5-4.2,6.1c-7.2,8.5-8,10.5-7.4,9.8
						c0.5-0.7,1.8-2.1,2.7-3.2c1-1.1,2.4-2.8,3.2-3.7c0.8-0.9,1.7-2.1,2.1-2.5c1-1.1,3.4-4.6,4.1-5.9c1-1.8,2.7-4.3,4-5.8
						c1.7-2,4.2-5.1,5-6.1c1.4-1.9,3.5-4.3,4.2-4.7c0.4-0.2,1.4-0.7,2.3-1c0.9-0.3,2.6-0.9,3.8-1.4c3.1-1.2,4.7-1.8,5.4-2
						c1.1-0.3,1.9-0.2,5.6,0.6c0.8,0.2,2,0.3,2.8,0.4c2,0.1,3.5,0.4,4,0.6c0.3,0.2,0.4,0.3,0.3,0.6c-0.2,0.7-0.4,1-1.4,1.6
						c-1.4,0.8-3.1,1.3-4.8,1.4l-1.4,0.1l-0.5-0.7c-0.5-0.7-1.1-1.1-1.7-1.1c-0.4,0-1.1,0.7-1.2,1.3c-0.2,0.8-0.5,0.1-0.5-1.2
						c0-0.5,0-0.6-0.3-0.5c-0.2,0-0.3,0.2-0.3,1.1l0,1.1l-0.8,0.5c-0.4,0.3-1.3,0.8-1.8,1.1c-0.6,0.3-1.4,0.8-1.9,1.1
						c-0.5,0.2-0.9,0.5-0.9,0.6c-0.1,0.2-2-0.4-2.5-0.8c-0.3-0.3-0.4-0.3-0.6-0.2c-0.1,0.1-0.2,0.2-0.2,0.3c0,0.3,0.8,0.9,1.8,1.2
						c2.3,0.8,4.2,0.6,6.4-0.3c0.8-0.4,1.6-0.6,1.6-0.6c0,0,0.2,0.4,0.4,0.9c0.4,1.2,1.2,2.6,2.1,3.9l0.7,1l0,2.6
						c0.1,2.9,0.1,2.7-1.3,3.7c-0.7,0.5-0.7,0.5-1.1,1.7c-0.6,2-0.4,4,0.3,4c0.3,0,0.3-0.1,0.2-0.8c-0.1-0.4-0.1-1-0.1-1.3
						c0-0.8,0.5-2.6,0.7-2.7c0.1-0.1,0.5-0.3,0.8-0.6l0.7-0.5l0.4,0.7c0.4,0.7,0.8,0.9,0.9,0.5c0-0.1-0.1-0.5-0.4-1
						c-0.4-0.7-0.5-0.8-0.6-3c-0.1-1.9-0.1-2.3,0.1-2.1c0.1,0.1,0.3,0.2,0.5,0.2c0.1,0,0.3-0.1,0.3-0.2c0-0.1-0.5-0.9-1.2-1.8
						c-2.2-3-3.1-5.3-3-7.4c0-0.9,0.1-1.2,0.4-1.4l0.3-0.3l0.4,0.3c0.2,0.2,0.7,0.7,1,1.2c0.3,0.5,1.3,1.9,2.2,3.1
						c2,2.8,2.1,3,2.6,4.3c0.7,1.9,1.4,6,1.1,7.2c-0.1,0.3-0.9,1.5-4.1,5.7c-1.5,2-2.9,3.5-3.8,4.1c-0.8,0.5-1.9,0.9-6.2,2.1
						c-4.3,1.2-6.6,1.8-8.2,2c-0.7,0.1-2.3,0.4-3.5,0.6c-3.1,0.5-2.9,0.5-2.9,0.9c0,0.3,0.1,0.3,0.8,0.2c0.4-0.1,1-0.1,1.3-0.2
						l0.5-0.1l-0.5,0.6c-0.6,0.6-2.8,3.7-3.5,4.6c-0.2,0.3-1.6,2.8-3,5.4c-1.4,2.6-3.2,5.8-3.9,7c-1.4,2.5-1.6,4.2,1.2-0.7
						c1.1-2,2.8-5,4.7-8.5c1.8-3.4,4.6-7.3,5.8-8.3c0.5-0.4,0.9-0.5,3.1-0.9c2.6-0.5,4.7-1,10.1-2.6c2.8-0.8,3.5-1.1,4.9-1.8
						c0.8-0.4,4.6-5.1,6.9-8.5c0.4-0.6,0.6-0.8,1-0.9c0.7-0.1,1.8-0.5,2.2-0.7c0.2-0.1,0.8-0.4,1.4-0.7c2-0.9,3.4-2,4.5-3.4
						c1.9-2.6,3-3.7,4.9-4.7c2.4-1.3,4.1-1.6,5.3-0.8c0.7,0.5,1.1,0.9,1.1,1.4c0,0.5-0.5,1.4-1.6,2.6c-0.6,0.6-1.4,1.6-1.8,2.2
						c-0.4,0.6-0.9,1.2-1.2,1.5c-0.2,0.3-0.7,0.9-1,1.5c-0.7,1.2-1.9,2.5-3.6,4c-2,1.7-4,4-5.5,6.2c-2.1,3.2-6.3,7.3-9.8,9.6
						c-1.9,1.3-4.9,2.7-6.6,3.2c-2.6,0.8-5,2.1-6.9,3.5c-1.2,0.9-1.9,2-1.8,2.3c0.1,0.1,0.4-0.1,1.3-1c1-1,1.5-1.3,2.9-2.1
						c0.9-0.5,1.7-0.8,1.8-0.8c0,0-0.1,0.5-0.3,1.1c-0.6,1.5-0.7,2.1-1.5,7c-0.3,2-0.5,3.8-0.5,6c0,2.4,0.2,9.4,0.3,10.1
						c0,0.2,1.1,1,0.9-0.3c-0.2-0.9-0.6-11.6-0.4-13.1c0.4-3.3,1.2-7.8,1.9-9.6c0.3-0.7,0.7-1.3,1.3-1.7c0.9-0.6,2.1-0.9,3.1-1.4
						c0.7-0.4,1.5-0.7,2.2-1.1c1.8-1,3.6-2.1,5.3-3.4c2.7-2.2,6.1-5.9,8.2-8.9c1-1.4,2.3-2.9,3.5-4c2.4-2.1,4-3.9,5-5.3
						c1.4-2.1,2.6-3.6,3.7-4.8C439.7,247.5,440.5,246,440.4,245.3z M415.6,233.8c-0.1,0-0.9-0.2-1.8-0.4c-0.9-0.2-1.9-0.4-2.2-0.4
						c-0.5,0-0.5-0.1-0.5-0.5c0-0.3,0.1-0.7,0.3-1c0.3-0.6,0.3-0.7-0.2-3.8c-0.7-4-0.5-5.8,0.7-7c0.8-0.7,1.3-0.7,1.8,0.3
						c0.4,0.8,1.5,5,2.2,8.7C415.9,230.7,415.8,233.8,415.6,233.8z M410.7,241.1c-0.3,0.2-3.1,1.3-3.8,1.4c-0.4,0.1-0.8,0-1,0
						c-0.3-0.1-0.3-0.2,0.4-0.5c0.4-0.2,1.4-0.8,2.2-1.4c1.9-1.2,2.1-1.2,2.3-0.3C410.8,240.7,410.7,241,410.7,241.1z M437.8,230.9
						c0.7,0.6,0.2,1.1-2.1,2.5c-1.9,1.1-4.8,2.6-4.9,2.5c0,0-0.1-0.8-0.2-1.8l-0.1-1.7l0.7-0.4c0.8-0.4,3.2-1.3,3.8-1.4
						C435.8,230.6,437.1,230.4,437.8,230.9z M431.3,217.8c0.6-1.5,2.1-3.3,3-3.6c0.4-0.1,0.8-0.1,1.3,0.2c0.5,0.3,0.7,1.2,0.6,3.3
						c0,1-0.2,2.3-0.2,2.9c-0.2,1.3,0,9.1,0.2,9.2c0.1,0-0.3,0.2-0.9,0.3c-0.6,0.1-1.9,0.5-2.9,0.8c-2.1,0.7-2,0.7-2-0.4
						c0-0.3-0.1-1.3-0.2-2c-0.3-1.7-0.3-1.5-0.1-2.8C430.3,221.6,430.7,219.4,431.3,217.8z M427.7,237.7c-0.3-1.9-0.5-3.3-0.6-5.4
						c-0.1-1.3-0.2-2.1-0.4-2.4c-0.3-0.4-0.3-0.7,0.1-1.5c0.7-1.5,1.9-2.2,2.3-1.3c0.3,0.8,0.9,6.7,0.9,8.7c0,2.1-0.9,5.9-1.8,7.5
						l-0.5,0.8l0.1-2.7C427.9,239.8,427.8,238.4,427.7,237.7z M424.8,226.5c0.4-2.7,0.4-6.1,0.2-8.3c-0.3-2.3-0.1-3.7,0.4-4.9
						c0.9-1.9,2.9-2.3,3.7-0.8c0.3,0.6,1,3.9,1.1,5.4c0.1,0.7,0,1.3-0.2,2.1c-0.3,1-0.5,2.6-0.7,4.8c0,0.5-0.1,0.9-0.1,1
						c0,0.1-0.4,0.2-0.7,0.2c-0.8,0.1-1.9,1.2-2.4,2.4c-0.3,0.8-0.4,0.9-0.8,0.9c-0.4,0-0.5-0.1-0.6-0.5
						C424.6,228.5,424.7,227.5,424.8,226.5z M421.9,234.7c-0.5-0.3-1.8-0.5-2.5-0.5c-0.5,0-0.5,0-0.4-0.6c0-0.3,0.2-1.3,0.2-2.3
						c0.1-0.9,0.2-2.1,0.3-2.6c0.3-2.2,0.3-2.9,0-4.3c-0.6-2.7-0.8-4.5-0.7-5.7c0.2-2.2,1-3.5,2.2-3.4c0.5,0,0.6,0.2,1,0.8
						c0.6,1,1.7,4.3,2.1,6.2c0.3,1.4,0.3,1.7,0.1,3.8c-0.1,1.3-0.1,2.6-0.1,2.9c0.1,0.5,0,0.7-0.5,1.6c-0.7,1.1-0.8,1.6-1.1,3.2
						l-0.2,1.2L421.9,234.7z M416.7,242.6c-0.9-1.2-2.1-2.8-2.1-2.9c0,0,0.6-0.1,1.3-0.1c1.1,0,1.6-0.1,2.8-0.5
						c1.5-0.5,2.7-1.2,3.3-1.8l0.4-0.4l0,1.1c0,0.7,0,1.4-0.2,2l-0.2,0.9l-1.1,0.5c-0.6,0.3-1.6,0.9-2.3,1.3l-1.2,0.8L416.7,242.6z
						 M419.2,246.8c0-0.1-0.3-0.7-0.7-1.5l-0.7-1.3l0.7-0.5c0.6-0.4,3-1.8,3.2-1.9c0,0,0,0.6-0.2,1.3c-0.1,0.7-0.3,1.7-0.4,2.1
						l-0.1,0.8l-0.9,0.5C419.7,246.7,419.2,246.9,419.2,246.8z M420.1,251.7c-0.1-0.9-0.2-2.1-0.3-2.5c-0.1-0.4-0.2-0.9-0.2-1.1
						c-0.1-0.3,0.1-0.4,0.6-0.8l0.7-0.5l0.1,0.6c0.1,0.5,0.1,0.6,0.4,0.6c0.3,0,0.3-0.2,0.5-1.9c0.2-1.8,0.8-5.3,1.1-6
						c0.1-0.2,0.2-1.8,0.3-3.4c0.1-3.3,0.2-3.7,0.5-4.8c0.5-1.6,2-2.6,2.5-1.6c0.1,0.2,0.2,1.4,0.3,2.6c0.1,1.3,0.3,3.3,0.5,4.4
						c0.2,1.1,0.3,2.2,0.2,2.4c0,0.2-0.1,1.3-0.1,2.5c0,3.3-0.2,5.2-0.6,5.9c-0.4,0.8-1.6,1.9-4.2,3.7l-2,1.4L420.1,251.7z
						 M429.5,247c-2.4,3.1-3.6,4.3-5.2,5.2c-0.9,0.5-2.7,1.2-2.7,1.1c0,0,0.7-0.5,1.5-1.1c3.6-2.5,4.2-3.4,4.4-5.6
						c0.1-0.9,0.2-1.3,0.4-1.6c1.1-1.5,1.7-3.2,2.3-6c0.2-1.1,0.4-1.5,0.7-1.8c0.3-0.4,4.1-2.6,4.5-2.7c0.1,0,0.1,0.1,0.1,0.2
						c0,0.1-0.1,0.6-0.1,1.1C435.2,237.5,431.9,243.9,429.5,247z"/>
				</g>
				<g>
					<path class="st15" d="M403.8,302.4c0-1.6-0.1-2.7-0.1-2.8c-0.1-0.7-0.3-4.8-0.3-7.3c0-2.2,0.1-4,0.5-6c0.8-4.9,0.9-5.4,1.5-7
						c0.2-0.4,0.3-0.8,0.3-0.9c-0.2,0.1-0.8,0.4-1.6,0.8c-1.4,0.7-1.9,1.1-2.8,2c-0.9,0.9-1.2,1.1-1.3,1c-0.1,0-0.1,0-0.1-0.1
						c-0.3-0.4,0.7-1.5,1.8-2.4c1.8-1.5,4.3-2.8,6.9-3.6c1.7-0.5,4.7-2,6.6-3.2c3.5-2.3,7.7-6.4,9.8-9.6c1.5-2.2,3.5-4.5,5.5-6.2
						c1.8-1.5,2.9-2.7,3.6-4c0.3-0.6,0.8-1.2,1-1.5c0.2-0.3,0.7-0.9,1.2-1.5c0.4-0.6,1.2-1.5,1.8-2.2c1.3-1.5,1.6-2.2,1.6-2.5
						c0-0.4-0.4-0.8-1.1-1.3c-1.1-0.7-2.8-0.5-5.2,0.8c-1.8,1-2.9,2.1-4.8,4.7c-1.1,1.5-2.5,2.6-4.5,3.5c-0.6,0.3-1.3,0.6-1.4,0.7
						c-0.4,0.2-1.5,0.6-2.2,0.8c-0.4,0.1-0.6,0.2-1,0.8c-2.4,3.5-6.1,8.1-6.9,8.5c-1.4,0.8-2.1,1-4.9,1.8c-5.5,1.6-7.6,2.1-10.2,2.6
						c-2.2,0.4-2.6,0.5-3.1,0.9c-1.2,0.9-4,4.8-5.8,8.2c-1.9,3.5-3.5,6.5-4.7,8.5l0,0c-2.8,4.8-2.4,2.3-1.3,0.5
						c0.7-1.2,2.5-4.4,3.9-7c1.4-2.6,2.8-5.1,3-5.4c0.6-1,2.9-4,3.5-4.7l0.3-0.4l-0.2,0c-0.3,0.1-0.9,0.1-1.3,0.2
						c-0.5,0.1-0.7,0.1-0.8,0c-0.1-0.1-0.1-0.2-0.1-0.3l0,0c0-0.4,0-0.4,2.6-0.8l0.4-0.1c1.2-0.2,2.8-0.5,3.5-0.6
						c1.6-0.3,3.9-0.8,8.2-2c4.3-1.2,5.4-1.6,6.2-2.1c0.8-0.5,2.3-2.1,3.8-4c3.1-4.1,4-5.3,4.1-5.6c0.3-1.1-0.4-5.2-1.1-7.1
						c-0.5-1.2-0.6-1.4-2.6-4.3c-0.9-1.2-1.8-2.6-2.2-3.1c-0.3-0.5-0.8-1.1-1-1.2l-0.3-0.3l-0.3,0.3c-0.2,0.2-0.3,0.5-0.4,1.4
						c-0.1,2.1,0.8,4.3,3,7.3c0,0.1,1.2,1.7,1.2,1.9c0,0.1,0,0.1-0.1,0.2c-0.1,0.1-0.2,0.1-0.3,0.1c-0.2,0-0.4-0.1-0.5-0.2
						c0,0.2,0,1.1,0,2c0.1,2.2,0.1,2.3,0.5,3c0.2,0.3,0.4,0.8,0.4,1c-0.1,0.2-0.2,0.3-0.3,0.3c-0.3,0-0.6-0.4-0.8-0.8l-0.4-0.6
						l-0.6,0.4c-0.4,0.3-0.7,0.6-0.8,0.6c-0.2,0.1-0.7,1.8-0.7,2.7c0,0.3,0,0.9,0.1,1.3c0.1,0.5,0.1,0.7,0,0.8
						c-0.1,0.1-0.2,0.1-0.3,0.1c-0.1,0-0.3-0.1-0.4-0.2c-0.4-0.6-0.4-2.3,0-3.9c0.3-1.2,0.4-1.3,1.1-1.7l0.2-0.1
						c1.1-0.7,1.1-0.7,1.1-3.1l-0.1-2.9l-0.7-1c-0.9-1.3-1.7-2.7-2.1-3.9c-0.2-0.4-0.3-0.8-0.4-0.9c-0.2,0.1-0.8,0.3-1.5,0.6
						c-2.4,1-4.2,1.1-6.5,0.3c-0.9-0.3-1.8-0.9-1.8-1.3c0-0.1,0.1-0.3,0.2-0.4c0.2-0.2,0.5,0,0.7,0.2c0.4,0.4,2.1,0.9,2.3,0.9
						c0.1-0.2,0.9-0.6,1-0.6c0.5-0.2,1.3-0.7,1.9-1.1c0.6-0.3,1.4-0.8,1.8-1.1l0.8-0.5l0-1c0-0.9,0-1.2,0.3-1.2c0.1,0,0.2,0,0.2,0
						c0.1,0.1,0.1,0.3,0.1,0.6c0,0.9,0.1,1.3,0.2,1.4c0,0,0-0.1,0.1-0.3c0.2-0.6,0.9-1.4,1.3-1.4c0.6,0,1.3,0.4,1.8,1.2l0.4,0.7
						l1.4-0.1c1.7-0.1,3.4-0.6,4.7-1.4c1-0.6,1.2-0.9,1.4-1.5c0.1-0.3,0-0.4-0.3-0.5c-0.4-0.2-2-0.5-4-0.6c-0.7-0.1-2-0.2-2.8-0.4
						c-3.7-0.8-4.5-0.9-5.6-0.6c-0.7,0.2-2.3,0.8-5.4,2c-1.2,0.4-2.8,1.1-3.8,1.4c-0.9,0.3-2,0.7-2.3,1c-0.6,0.4-2.7,2.8-4.1,4.7
						c-0.8,1.1-3.3,4.1-5,6.1c-1.3,1.5-3,4-4,5.8c-0.7,1.3-3.1,4.8-4.1,5.9c-0.4,0.4-1.3,1.5-2.1,2.5c-0.8,0.9-2.2,2.6-3.2,3.7
						c-1,1.1-2.2,2.6-2.7,3.2c-0.6,0.7,0.1-1.4,7.3-10c1.3-1.5,3.4-4.6,4.2-6c0.9-1.7,2.7-4.4,3.7-5.5c0.9-1,3.6-4.3,5.6-6.8
						c3.5-4.4,3.9-4.8,6.4-5.5c0.6-0.2,2.8-1,4.9-1.8c2.1-0.8,4.2-1.6,4.7-1.7c0.8-0.2,0.8-0.2,0.9-0.7c0.5-1.8,0.5-1.9,0.3-2.9
						c-0.7-4-0.8-5.6-0.4-7.4c0.3-1.2,0.9-2.1,1.7-2.4c0.6-0.2,1.2-0.2,1.7,0.1c0.7,0.4,0.9,1,1.6,4c0.3,1.4,0.7,3.2,0.9,3.9
						c0.6,2.5,0.7,3.3,0.5,4.8c-0.1,0.7-0.1,1.2-0.1,1.4c0.1,0,0.4,0.1,0.8,0.1c0.7,0.1,0.7,0.1,0.9-0.3c0.2-0.4,0.6-4.5,0.7-7.2
						c0-0.8,0-1.8-0.2-2.3c-0.8-3.4-0.8-5.7,0-7.6c0.6-1.5,1.2-1.9,2.4-1.8c1.3,0.1,1.6,0.5,2.5,3.5c0.4,1.1,0.7,2.2,0.8,2.6
						c0-0.4-0.1-1.2-0.2-2.7c-0.2-1.6-0.2-2.2-0.1-3.1c0.3-1.9,1.4-3.6,2.6-4c1.3-0.5,2.4-0.1,3,1c0.3,0.6,1.1,3.8,1.1,4.3
						c0,0.2,0.1,0.4,0.1,0.5c0,0,0,0,0,0c0,0,0.1-0.1,0.2-0.3c0.5-1.1,1.7-2.5,2.6-3c0.5-0.3,1.6-0.2,2.2,0.1c1,0.5,1.4,1.5,1.1,3.4
						c-0.4,3.6-0.5,4.8-0.4,8.8l0.1,4.1l0.7,0.2c0.8,0.2,1.3,0.5,1.5,1c0.2,0.4,0.1,0.8-0.2,1.4c-0.3,0.5-1.3,1.3-1.9,1.5
						c-0.1,0-0.2,0.1-0.2,0.5c0,1.7-1.2,4.9-3.3,8.4c-0.5,0.8-0.8,1.4-1,1.7c0.2-0.1,0.6-0.2,1.2-0.5c2.2-1,3.9-1.1,5.3-0.4
						c0.7,0.4,1.5,1.3,1.7,1.9l0,0c0.2,0.7-0.7,2.2-1.9,3.6c-1.2,1.2-2.3,2.7-3.7,4.8c-1,1.5-2.6,3.2-5,5.3c-1.2,1.1-2.5,2.6-3.5,4
						c-2.1,3.1-5.5,6.7-8.2,8.9c-1.7,1.4-3.6,2.5-5.3,3.4c-0.4,0.2-0.9,0.5-1.3,0.7c-0.3,0.1-0.6,0.3-0.8,0.4
						c-0.4,0.2-0.8,0.3-1.2,0.5c-0.7,0.3-1.3,0.5-1.9,0.9c-0.6,0.4-1,1-1.3,1.7c-0.6,1.8-1.5,6.2-1.9,9.6c-0.2,1.5-0.1,8.1,0.1,8.9
						c0.1,0.5,0.2,2.5,0.2,4.7c0,0.1,0,0.3,0,0.3S403.8,302.5,403.8,302.4z M405.8,278.2C405.8,278.2,405.8,278.2,405.8,278.2
						c0.1,0.1,0.2,0.1-0.2,1.2c-0.6,1.5-0.7,2.1-1.5,6.9c-0.3,2-0.5,3.8-0.5,6c0,2.4,0.2,6.6,0.3,7.2c0,0.1,0.1,1.4,0.1,2.8
						c0,0.7,0.5,0.6,0.5,0.6s0-0.4,0-0.6c-0.1-2-0.1-3.9-0.2-4.4c-0.2-0.9-0.2-7.5-0.1-9c0.4-3.3,1.2-7.8,1.9-9.6
						c0.3-0.8,0.7-1.3,1.4-1.8c0.6-0.4,1.2-0.7,1.9-0.9c0.4-0.2,0.8-0.3,1.2-0.5c0.3-0.1,0.6-0.3,0.9-0.4c0.4-0.2,0.9-0.4,1.3-0.7
						c1.6-0.9,3.6-2,5.2-3.4c2.7-2.2,6.1-5.9,8.2-8.9c1-1.4,2.3-2.9,3.5-4c2.4-2.1,4-3.9,5-5.3c1.4-2.1,2.6-3.6,3.7-4.8
						c1.2-1.3,2-2.8,1.9-3.4c-0.1-0.6-0.9-1.4-1.6-1.8c-1.3-0.7-3-0.5-5.1,0.4c-1.4,0.6-1.4,0.6-1.5,0.5c-0.1-0.1-0.1-0.1,1-2
						c2.1-3.5,3.3-6.6,3.3-8.3c0-0.3,0-0.6,0.3-0.7c0.5-0.2,1.5-1,1.8-1.4c0.3-0.5,0.4-0.9,0.2-1.2c-0.2-0.4-0.6-0.7-1.4-0.9
						l-0.8-0.2l-0.1-4.2c-0.1-4-0.1-5.2,0.4-8.8c0.2-1.8-0.1-2.7-1-3.2c-0.6-0.3-1.6-0.3-2-0.1c-0.9,0.5-2.1,1.9-2.6,2.9
						c-0.1,0.3-0.2,0.4-0.3,0.4c-0.1,0-0.2-0.1-0.2-0.1c-0.1-0.1-0.2-0.4-0.2-0.6c0-0.5-0.8-3.6-1.1-4.2c-0.5-1-1.5-1.3-2.7-0.9
						c-1.1,0.4-2.1,2-2.4,3.9c-0.1,0.9-0.1,1.5,0.1,3c0.4,3,0.2,3,0.1,3.1c-0.1,0-0.2-0.1-0.2-0.2c-0.1-0.2-0.5-1.4-0.9-2.7
						c-1-3-1.2-3.3-2.4-3.4c-1.1-0.1-1.6,0.3-2.2,1.7c-0.8,1.8-0.8,4.1,0,7.5c0.1,0.5,0.2,1.5,0.2,2.3c-0.1,2.6-0.5,6.9-0.7,7.3
						c-0.2,0.5-0.3,0.5-1.1,0.4c-0.4,0-0.9-0.1-0.9-0.2c0,0-0.1-0.1,0.1-1.5c0.2-1.5,0.1-2.2-0.5-4.8c-0.2-0.7-0.6-2.5-0.9-3.9
						c-0.7-2.9-0.9-3.5-1.5-3.9c-0.5-0.3-1-0.3-1.5-0.1c-0.8,0.3-1.4,1.2-1.6,2.3c-0.4,1.8-0.3,3.3,0.4,7.3c0.2,1,0.2,1.1-0.3,2.9
						c-0.1,0.6-0.3,0.6-1.1,0.8c-0.5,0.1-2.6,0.8-4.7,1.7c-2.1,0.8-4.3,1.6-5,1.8c-2.4,0.7-2.8,1.1-6.3,5.4c-2,2.5-4.7,5.8-5.6,6.8
						c-1,1.1-2.8,3.8-3.7,5.4c-0.8,1.4-2.9,4.5-4.2,6.1c-2.3,2.7-5,5.8-7.5,8.8l-0.6,1.5c0,0,0.4-0.4,0.5-0.5
						c0.6-0.7,1.8-2.1,2.7-3.2c1-1.1,2.4-2.8,3.2-3.7c0.8-1,1.8-2.1,2.1-2.5c1-1.1,3.4-4.6,4.1-5.9c1-1.8,2.7-4.3,4-5.8
						c1.7-2,4.2-5.1,5-6.1c1.4-1.9,3.5-4.3,4.2-4.8c0.4-0.2,1.4-0.7,2.4-1c0.9-0.3,2.6-0.9,3.8-1.4c3.1-1.2,4.7-1.8,5.4-2
						c1.1-0.3,1.9-0.2,5.7,0.6c0.8,0.2,2,0.3,2.8,0.4c2,0.1,3.6,0.4,4,0.6c0.4,0.2,0.5,0.3,0.4,0.7c-0.2,0.7-0.5,1-1.5,1.6
						c-1.4,0.8-3.1,1.3-4.8,1.4l-1.5,0.1l-0.5-0.7c-0.5-0.7-1.1-1.1-1.6-1.1c-0.3,0-1,0.6-1.1,1.2c0,0.2-0.1,0.4-0.3,0.4
						c-0.3,0-0.4-1-0.4-1.6c0-0.1,0-0.4-0.1-0.4c0,0,0,0-0.1,0c-0.1,0-0.2,0.1-0.2,1l0,1.1l-0.9,0.5c-0.4,0.3-1.3,0.8-1.8,1.1
						c-0.6,0.3-1.4,0.8-1.9,1.1c-0.5,0.3-0.9,0.5-0.9,0.6c0,0,0,0.1-0.1,0.1c-0.4,0.1-2.1-0.5-2.5-0.9c-0.3-0.3-0.4-0.3-0.5-0.2
						c-0.1,0.1-0.2,0.2-0.2,0.2c0,0.2,0.8,0.8,1.7,1.1c2.2,0.8,4,0.7,6.4-0.3c0.6-0.2,1.6-0.6,1.6-0.6c0.1,0,0.1,0,0.5,1
						c0.4,1.1,1.2,2.6,2.1,3.9l0.7,1l0.1,3c0,2.4,0,2.5-1.2,3.2l-0.2,0.1c-0.7,0.4-0.7,0.5-1,1.6c-0.5,1.7-0.4,3.3-0.1,3.7
						c0.1,0.1,0.1,0.1,0.2,0.1c0,0,0.1,0,0.1,0c0-0.1,0-0.4,0-0.7c-0.1-0.4-0.1-1-0.1-1.3c0-0.7,0.5-2.6,0.8-2.8
						c0.1-0.1,0.5-0.3,0.8-0.6l0.7-0.6l0.5,0.8c0.3,0.5,0.5,0.7,0.6,0.7c0.1,0,0.1-0.1,0.1-0.2c0-0.1-0.1-0.4-0.4-0.9
						c-0.4-0.7-0.5-0.9-0.6-3.1c-0.1-2-0.1-2.2,0.1-2.2c0,0,0.1,0,0.2,0c0.1,0.1,0.3,0.2,0.4,0.2c0.1,0,0.1,0,0.2-0.1c0,0,0,0,0,0
						c0-0.1-0.5-0.8-1.2-1.8c-2.2-3-3.1-5.3-3-7.4c0-0.9,0.1-1.2,0.4-1.5l0.4-0.4l0.5,0.4c0.2,0.2,0.7,0.7,1,1.3
						c0.3,0.5,1.3,1.9,2.2,3.1c2,2.8,2.1,3.1,2.6,4.3c0.7,1.9,1.4,6.1,1.1,7.2c-0.1,0.4-0.9,1.5-4.1,5.7c-1.5,2-3,3.5-3.8,4.1
						c-0.8,0.5-1.9,0.9-6.3,2.1c-4.3,1.2-6.6,1.8-8.2,2c-0.7,0.1-2.3,0.4-3.5,0.6l-0.4,0.1c-2.5,0.4-2.5,0.4-2.5,0.7l0,0
						c0,0.1,0,0.1,0,0.2c0.1,0.1,0.4,0,0.7,0c0.4-0.1,1-0.1,1.3-0.2l0.8-0.1l-0.7,0.8c-0.6,0.6-2.8,3.7-3.5,4.6
						c-0.2,0.3-1.6,2.8-3,5.4c-1.4,2.6-3.2,5.8-3.9,7c-1,1.8-1.8,4.1,1-0.7l0,0c1.1-2,2.8-5,4.7-8.5c1.9-3.5,4.6-7.3,5.9-8.3
						c0.6-0.4,0.9-0.5,3.2-1c2.6-0.5,4.7-1,10.1-2.6c2.8-0.8,3.5-1,4.9-1.8c0.8-0.4,4.5-5.1,6.8-8.4c0.4-0.6,0.7-0.8,1.1-0.9
						c0.7-0.1,1.8-0.5,2.1-0.7c0.2-0.1,0.8-0.4,1.4-0.7c2-0.8,3.4-1.9,4.5-3.4c1.9-2.6,3.1-3.7,4.9-4.7c2.4-1.3,4.2-1.6,5.4-0.8
						c0.7,0.5,1.1,1,1.1,1.4c0,0.5-0.5,1.4-1.6,2.6c-0.6,0.7-1.4,1.6-1.8,2.2c-0.4,0.6-0.9,1.2-1.2,1.5c-0.2,0.3-0.7,0.9-1,1.5
						c-0.7,1.2-1.9,2.5-3.7,4c-2,1.7-4,4-5.5,6.1c-2.1,3.2-6.3,7.3-9.8,9.6c-1.9,1.3-4.9,2.7-6.6,3.3c-2.6,0.8-5,2-6.8,3.5
						c-1.3,1-1.9,1.9-1.7,2.2c0.1,0,0.5-0.3,1.2-1c1-1,1.5-1.4,2.9-2.1C405.3,278.3,405.7,278.2,405.8,278.2z M420.2,253.6l-0.2-1.9
						c-0.1-0.9-0.2-2.1-0.3-2.5c-0.1-0.4-0.2-1-0.2-1.1c-0.1-0.3,0.1-0.5,0.7-0.9l0.8-0.5l0.1,0.8c0.1,0.5,0.1,0.6,0.3,0.6
						c0.2,0,0.2-0.1,0.4-1.8c0.2-1.8,0.8-5.3,1.1-6c0.1-0.2,0.2-1.6,0.3-3.4c0.1-3.3,0.2-3.8,0.5-4.8c0.4-1.1,1.2-2,1.9-2
						c0.3,0,0.6,0.2,0.7,0.5c0.1,0.2,0.2,1.5,0.3,2.7c0.1,1.3,0.3,3.3,0.5,4.4c0.1,1,0.3,2.2,0.2,2.4c0,0.1-0.1,1.2-0.1,2.5
						c0,3.3-0.2,5.3-0.6,6c-0.4,0.8-1.7,1.9-4.2,3.7L420.2,253.6z M420.8,246.9l-0.6,0.4c-0.6,0.4-0.6,0.5-0.6,0.7
						c0,0.2,0.1,0.7,0.2,1.1c0.1,0.4,0.3,1.6,0.3,2.5l0.2,1.6l1.9-1.3c2.6-1.8,3.8-2.9,4.2-3.7c0.3-0.7,0.5-2.6,0.6-5.9
						c0-1.1,0.1-2.3,0.1-2.5c0-0.1-0.1-1.1-0.2-2.4c-0.2-1.2-0.4-3.1-0.5-4.4c-0.1-1.4-0.2-2.5-0.3-2.6c-0.1-0.2-0.3-0.4-0.5-0.4
						c-0.6,0-1.4,0.8-1.8,1.9c-0.3,1.1-0.4,1.5-0.5,4.8c-0.1,1.5-0.2,3.2-0.3,3.5c-0.3,0.7-0.9,4.1-1.1,6c-0.2,1.7-0.2,2-0.6,2
						c-0.3,0-0.4-0.2-0.5-0.7L420.8,246.9z M421.7,253.4C421.7,253.4,421.7,253.4,421.7,253.4L421.7,253.4L421.7,253.4
						c-0.1-0.1-0.1-0.2,1.5-1.3c3.5-2.5,4.2-3.4,4.4-5.5c0.1-0.9,0.2-1.3,0.4-1.7c1-1.4,1.7-3.2,2.2-6c0.2-1.1,0.4-1.5,0.7-1.9
						c0.4-0.4,4.2-2.7,4.6-2.7c0,0,0.1,0,0.1,0c0.1,0,0.1,0.1,0.1,0.2c0,0.1-0.1,0.7-0.1,1.1c-0.3,1.9-3.6,8.3-6,11.4
						c-2.4,3.1-3.6,4.3-5.2,5.2C424,252.5,422.1,253.4,421.7,253.4z M435.5,234.5c-0.3,0.1-4.1,2.3-4.5,2.7
						c-0.3,0.3-0.5,0.8-0.7,1.8c-0.5,2.8-1.2,4.6-2.3,6.1c-0.2,0.3-0.3,0.7-0.4,1.6c-0.2,2.2-0.9,3.1-4.5,5.7
						c-0.5,0.3-0.9,0.6-1.2,0.8c0.6-0.2,1.6-0.7,2.2-1c1.6-0.9,2.8-2.1,5.1-5.2l0.1,0.1l-0.1-0.1c2.3-3.1,5.7-9.4,5.9-11.3
						C435.5,235.1,435.5,234.6,435.5,234.5C435.5,234.5,435.5,234.5,435.5,234.5z M419.2,247C419.2,247,419.2,246.9,419.2,247
						L419.2,247l-0.1-0.1c0-0.1-0.3-0.7-0.7-1.4l-0.7-1.4l0.7-0.5c0.6-0.4,3-1.9,3.2-1.9l0,0l0,0c0,0,0.1,0.1-0.2,1.4
						c-0.1,0.7-0.3,1.7-0.4,2.1l-0.1,0.9l-1,0.5C420,246.7,419.5,247,419.2,247z M419.3,246.8C419.3,246.8,419.3,246.8,419.3,246.8
						L419.3,246.8C419.3,246.8,419.3,246.8,419.3,246.8z M418,244.1l0.6,1.3c0.3,0.6,0.6,1.2,0.7,1.4c0.1,0,0.4-0.1,0.9-0.4l0.9-0.5
						l0.1-0.8c0.1-0.5,0.2-1.4,0.4-2.1c0.1-0.6,0.2-1,0.2-1.1c-0.5,0.2-2.5,1.4-3.1,1.8L418,244.1z M427.6,244.5l0.1-3
						c0-1.7,0-3.1-0.1-3.8c-0.3-1.9-0.5-3.3-0.6-5.4c-0.1-1.9-0.3-2.2-0.4-2.3c-0.3-0.5-0.3-0.8,0.1-1.6c0.5-1,1.3-1.8,1.9-1.8
						c0.3,0,0.5,0.2,0.6,0.4c0.3,0.8,0.9,6.7,0.9,8.8c0,2.1-0.9,6-1.8,7.5L427.6,244.5z M428.5,226.8c-0.5,0-1.2,0.6-1.7,1.6
						c-0.3,0.7-0.3,1-0.1,1.4c0.2,0.3,0.3,1.5,0.4,2.4c0.2,2.1,0.3,3.5,0.6,5.4l0,0c0.1,0.7,0.1,2.1,0.1,3.8l-0.1,2.3l0.3-0.5
						c0.9-1.5,1.8-5.3,1.8-7.4c0-2.1-0.6-7.9-0.9-8.7C428.9,226.9,428.8,226.8,428.5,226.8C428.6,226.8,428.6,226.8,428.5,226.8z
						 M417.3,243.6l-0.7-0.9c-0.5-0.7-2.1-2.8-2.1-3c0-0.1,0-0.2,1.4-0.2c1.1,0,1.5-0.1,2.7-0.5c1.5-0.5,2.6-1.2,3.2-1.8l0.5-0.6
						l0.1,1.3c0,0.7,0,1.5-0.2,2l-0.3,1l-1.1,0.5c-0.6,0.3-1.6,0.9-2.3,1.3L417.3,243.6z M414.8,239.7c0.2,0.3,1.2,1.7,2,2.8
						l0.6,0.8l1.2-0.7c0.7-0.4,1.7-1,2.3-1.3l1-0.5l0.2-0.9c0.2-0.6,0.2-1.3,0.2-2l0-0.9l-0.2,0.2c-0.6,0.7-1.8,1.3-3.3,1.9
						c-1.2,0.4-1.7,0.5-2.8,0.5C415.4,239.7,415,239.7,414.8,239.7z M406.4,242.6c-0.2,0-0.5,0-0.6-0.1c-0.1-0.1-0.3-0.1-0.3-0.2
						c0-0.1,0.1-0.2,0.6-0.5c0.4-0.2,1.4-0.8,2.2-1.4c1.3-0.8,1.8-1.1,2.1-0.9c0.2,0.1,0.3,0.3,0.3,0.7c0,0,0.1,0.7-0.1,0.9l0,0
						c-0.3,0.3-3.2,1.4-3.9,1.4C406.7,242.6,406.6,242.6,406.4,242.6z M405.8,242.3c0,0,0.1,0,0.1,0.1c0.2,0.1,0.6,0.1,1,0
						c0.7-0.1,3.5-1.2,3.8-1.4c0,0,0.1-0.3,0-0.7c-0.1-0.3-0.1-0.5-0.2-0.6c-0.2-0.1-0.8,0.2-1.9,0.9c-0.8,0.5-1.8,1.2-2.2,1.4
						C406.1,242.1,405.8,242.3,405.8,242.3z M430.8,236.1C430.7,236.1,430.7,236.1,430.8,236.1c-0.1,0-0.1-0.1-0.2-1.9l-0.1-1.8
						l0.8-0.4c0.8-0.4,3.2-1.3,3.8-1.4c0.8-0.1,2.1-0.3,2.8,0.2c0.2,0.2,0.4,0.4,0.3,0.6c0,0.5-0.7,1-2.5,2.1
						C435.7,233.5,431.3,236.1,430.8,236.1z M430.6,232.5l0.1,1.7c0.1,0.9,0.1,1.5,0.1,1.7c0.5-0.1,3-1.4,4.8-2.5
						c1.4-0.8,2.4-1.5,2.4-1.9c0-0.1-0.1-0.3-0.3-0.4c-0.7-0.5-1.9-0.3-2.7-0.2c-0.6,0.1-3,1-3.8,1.3L430.6,232.5z M422.3,235.1
						l-0.5-0.3c-0.5-0.2-1.8-0.5-2.5-0.5c-0.3,0-0.4,0-0.5-0.1c-0.1-0.1-0.1-0.3,0-0.6c0-0.3,0.2-1.3,0.2-2.3
						c0.1-0.9,0.2-2.1,0.3-2.6c0.3-2.2,0.3-2.9,0-4.3c-0.6-2.7-0.8-4.6-0.7-5.7c0.2-2.2,1.1-3.6,2.3-3.5c0.5,0,0.7,0.2,1,0.8
						c0.6,1,1.7,4.3,2.1,6.2c0.3,1.4,0.3,1.7,0.1,3.8c-0.1,1.2-0.1,2.5-0.1,2.9c0.1,0.5,0,0.8-0.5,1.7c-0.7,1.1-0.8,1.5-1.1,3.2
						L422.3,235.1z M420.8,215.4c-1,0-1.8,1.3-2,3.3c-0.1,1.1,0.1,2.9,0.7,5.7c0.3,1.4,0.3,2.1,0,4.3c-0.1,0.5-0.2,1.7-0.3,2.6
						c-0.1,1-0.2,2-0.2,2.3c0,0.2-0.1,0.4,0,0.4c0,0,0.2,0,0.4,0c0.7,0,2,0.3,2.6,0.5l0.3,0.1l0.2-1c0.2-1.7,0.4-2.1,1.1-3.3
						c0.5-0.9,0.6-1.1,0.5-1.5c-0.1-0.3,0-1.6,0.1-2.9c0.1-2.1,0.1-2.4-0.1-3.8c-0.4-1.9-1.5-5.2-2.1-6.1
						C421.5,215.6,421.3,215.5,420.8,215.4C420.9,215.4,420.9,215.4,420.8,215.4z M415.6,233.8c-0.1,0-1.2-0.2-1.8-0.4
						c-0.9-0.2-1.9-0.4-2.2-0.4c-0.5,0-0.6-0.1-0.6-0.6c0-0.3,0.1-0.7,0.3-1c0.3-0.6,0.3-0.7-0.2-3.8c-0.7-4.1-0.5-5.9,0.7-7
						c0.4-0.4,0.8-0.6,1.1-0.5c0.3,0,0.6,0.3,0.9,0.8c0.4,0.8,1.5,4.9,2.2,8.7c0.2,0.9,0.1,3.9-0.2,4.1
						C415.6,233.8,415.6,233.8,415.6,233.8z M412.7,220.3c-0.2,0-0.5,0.2-0.9,0.5c-1.2,1.1-1.4,2.9-0.7,6.9c0.5,3.1,0.5,3.2,0.2,3.9
						c-0.1,0.3-0.2,0.7-0.3,0.9c0,0.4,0,0.4,0.4,0.4c0.3,0,1.3,0.2,2.2,0.4c0.9,0.2,1.6,0.3,1.8,0.4c0.2-0.3,0.3-3,0.1-4
						c-0.7-3.7-1.7-7.9-2.1-8.7C413.2,220.6,413,220.3,412.7,220.3C412.7,220.3,412.7,220.3,412.7,220.3z M430.6,231.4
						c-0.1,0-0.2,0-0.2-0.1c-0.2-0.1-0.2-0.4-0.2-0.9v-0.1c0-0.3-0.1-1.3-0.2-2l-0.1-0.3c-0.2-1.3-0.2-1.3-0.1-2.2l0-0.2
						c0.4-4,0.8-6.2,1.5-7.9l0.1,0l-0.1,0c0.6-1.5,2.1-3.3,3-3.7c0.4-0.1,0.8-0.1,1.4,0.2c0.6,0.3,0.8,1.2,0.7,3.4
						c0,1-0.2,2.3-0.2,2.9c-0.2,1.4,0,8.7,0.1,9.2c0,0,0,0.1,0,0.1c0,0.1,0,0.2-1,0.3c-0.6,0.1-1.9,0.5-2.9,0.8l-0.1,0
						C431.3,231.2,430.9,231.4,430.6,231.4z M434.7,214.2c-0.1,0-0.3,0-0.4,0.1c-0.9,0.3-2.4,2.1-2.9,3.6c-0.7,1.7-1.1,3.8-1.5,7.8
						l0,0.2c-0.1,0.9-0.1,0.9,0.1,2.2l0.1,0.3c0.1,0.8,0.2,1.7,0.2,2.1v0.1c0,0.4,0,0.7,0.1,0.7c0.2,0.1,0.7-0.1,1.7-0.4l0.1,0
						c1-0.4,2.4-0.7,2.9-0.8c0.4-0.1,0.7-0.1,0.8-0.2c-0.3-1-0.3-8.4-0.2-9.2c0.1-0.6,0.2-1.9,0.2-2.9c0.1-2-0.1-3-0.5-3.2
						C435.2,214.2,435,214.2,434.7,214.2z M425.2,229.4c-0.5,0-0.6-0.1-0.7-0.6c-0.1-0.3,0-1.3,0.1-2.3l0,0c0.4-2.7,0.4-6.1,0.2-8.3
						c-0.3-2.4-0.1-3.8,0.4-4.9c0.5-1.1,1.4-1.8,2.3-1.8c0,0,0,0,0,0c0.6,0,1.2,0.3,1.5,1c0.3,0.7,1,3.9,1.1,5.4
						c0.1,0.7,0,1.3-0.2,2.1c-0.3,1-0.5,2.6-0.7,4.8c0,0.3-0.1,0.9-0.2,1c-0.1,0.1-0.7,0.3-0.8,0.3c-0.8,0.1-1.8,1.1-2.3,2.3
						C425.8,229.3,425.8,229.4,425.2,229.4z M424.9,226.5c-0.1,1-0.2,2-0.2,2.3c0.1,0.4,0.1,0.4,0.5,0.4c0.4,0,0.4,0,0.8-0.8
						c0.5-1.2,1.6-2.3,2.4-2.4c0.4-0.1,0.6-0.1,0.7-0.2c0,0,0.1-0.4,0.1-0.9c0.2-2.2,0.4-3.8,0.7-4.9c0.2-0.8,0.3-1.3,0.2-2.1
						c-0.1-1.4-0.8-4.7-1.1-5.3c-0.3-0.6-0.8-0.9-1.3-0.9c0,0,0,0,0,0c-0.8,0-1.7,0.7-2.2,1.7c-0.5,1.1-0.7,2.5-0.4,4.8
						C425.3,220.4,425.2,223.8,424.9,226.5L424.9,226.5z"/>
				</g>
			</g>
		</g>
	</g>
	<g>
		<g>
			<path class="st15" d="M400.7,210.4c2-1.1,3-4.9,3.6-5s0.7,1.8,1.2,2.6c0.4,0.7,0.8,1.5,1.4,1.8c1.8,1.1,1.1,1.7-0.5,2.9
				c-1.1,0.8-1.5,4.4-2,4.4c-0.5,0-0.6-0.8-0.8-1.3c-0.5-1.5-1.3-2.9-2.7-3.8C400.1,211.5,400,211,400.7,210.4z"/>
		</g>
		<g>
			<path class="st15" d="M385.6,225.6c0.9,1.2,1.2,2.6,2.3,3.3c0.4,0.2,0.4,0.6,0,0.9c-0.9,0.6-1.4,1.5-1.8,2.5
				c-0.2,0.6-0.6,0.9-0.9,0c-0.4-1-0.8-1.9-1.7-2.5c-0.4-0.3-0.4-0.6,0-0.9C384.6,228.1,385,226.9,385.6,225.6z"/>
		</g>
		<g>
			<path class="st15" d="M435.6,267.5c-0.8-1.4-1.1-2.6-2.2-3.3c-0.4-0.3-0.4-0.7-0.1-0.9c1.1-0.8,1.5-2,2.2-3.3
				c0.7,1.3,1.1,2.5,2.2,3.3c0.4,0.3,0.2,0.7-0.1,0.9C436.7,265,436.2,266.1,435.6,267.5z"/>
		</g>
		<g>
			<path class="st15" d="M419.5,282.1c0.1-0.1,0.3-0.1,0.4,0c0.2,0.4,0.3,0.9,0.6,1.2c0.5,0.6,1.1,0.7,1.1,1c0,0.4-0.6,0.2-1.1,0.7
				c-0.2,0.2-0.3,0.9-0.5,1.3c0,0.1-0.2,0.1-0.2,0c-0.3-0.5-0.5-1-0.8-1.4c-0.3-0.4-1.1-0.6-1.1-0.8c0-0.4,0.7-0.5,1.2-1.1
				C419.1,282.8,419.3,282.5,419.5,282.1z"/>
		</g>
		<g>
			<path class="st15" d="M426.3,202.9c-0.9,0.4-1.1,1.4-1.6,2.3c-0.8-0.8-0.9-1.9-1.8-2.3c0.5-0.9,1.1-1.8,1.8-2.9
				C425.1,201.1,426.1,201.7,426.3,202.9z"/>
		</g>
		<g>
			<path class="st15" d="M448.4,240.8c-0.1,0.2-0.3,0.2-0.4,0c-0.1-0.2-0.3-0.5-0.4-0.6c-0.3-0.2-0.7-0.2-0.7-0.5
				c-0.1-0.4,0.3-0.2,0.7-0.6c0.1-0.1,0.3-0.4,0.4-0.7c0.1-0.1,0.3-0.1,0.3,0c0.1,0.3,0.2,0.5,0.3,0.6c0.3,0.3,0.7,0.3,0.7,0.6
				c0.1,0.3-0.3,0.3-0.7,0.7C448.6,240.3,448.5,240.5,448.4,240.8z"/>
		</g>
	</g>
	<g>
		<g>
			<path class="st15" d="M381.3,357.9h3.9v0.6h-3.3v1.9h2.9v0.5h-2.9v2.4h-0.6V357.9z"/>
		</g>
		<g>
			<path class="st15" d="M390.6,363.4c-0.4,0-0.8-0.1-1.1-0.2s-0.6-0.4-0.9-0.6c-0.2-0.3-0.4-0.6-0.6-0.9c-0.1-0.3-0.2-0.7-0.2-1.1
				v0c0-0.4,0.1-0.7,0.2-1.1c0.1-0.3,0.3-0.6,0.6-0.9s0.5-0.5,0.9-0.6c0.3-0.2,0.7-0.2,1.1-0.2c0.4,0,0.8,0.1,1.1,0.2
				c0.3,0.1,0.6,0.4,0.9,0.6c0.2,0.3,0.4,0.6,0.6,0.9s0.2,0.7,0.2,1.1c0,0,0,0,0,0c0,0.4-0.1,0.7-0.2,1.1c-0.1,0.3-0.3,0.6-0.6,0.9
				c-0.2,0.3-0.5,0.5-0.9,0.6C391.4,363.3,391,363.4,390.6,363.4z M390.6,362.8c0.3,0,0.6-0.1,0.9-0.2c0.3-0.1,0.5-0.3,0.7-0.5
				c0.2-0.2,0.3-0.4,0.4-0.7c0.1-0.3,0.2-0.6,0.2-0.9v0c0-0.3-0.1-0.6-0.2-0.9c-0.1-0.3-0.3-0.5-0.4-0.7c-0.2-0.2-0.4-0.4-0.7-0.5
				c-0.3-0.1-0.5-0.2-0.9-0.2s-0.6,0.1-0.9,0.2c-0.3,0.1-0.5,0.3-0.7,0.5c-0.2,0.2-0.3,0.4-0.4,0.7c-0.1,0.3-0.2,0.6-0.2,0.9v0
				c0,0.3,0.1,0.6,0.2,0.9c0.1,0.3,0.3,0.5,0.4,0.7c0.2,0.2,0.4,0.4,0.7,0.5C390.1,362.8,390.3,362.8,390.6,362.8z"/>
		</g>
		<g>
			<path class="st15" d="M397.8,358.4H396v-0.6h4.3v0.6h-1.8v4.9h-0.6V358.4z"/>
		</g>
		<g>
			<path class="st15" d="M405.6,363.4c-0.4,0-0.8-0.1-1.1-0.2s-0.6-0.4-0.9-0.6c-0.2-0.3-0.4-0.6-0.6-0.9c-0.1-0.3-0.2-0.7-0.2-1.1
				v0c0-0.4,0.1-0.7,0.2-1.1c0.1-0.3,0.3-0.6,0.6-0.9c0.2-0.3,0.5-0.5,0.9-0.6c0.3-0.2,0.7-0.2,1.1-0.2c0.4,0,0.8,0.1,1.1,0.2
				c0.3,0.1,0.6,0.4,0.9,0.6c0.2,0.3,0.4,0.6,0.6,0.9s0.2,0.7,0.2,1.1c0,0,0,0,0,0c0,0.4-0.1,0.7-0.2,1.1c-0.1,0.3-0.3,0.6-0.6,0.9
				c-0.2,0.3-0.5,0.5-0.9,0.6C406.4,363.3,406,363.4,405.6,363.4z M405.6,362.8c0.3,0,0.6-0.1,0.9-0.2c0.3-0.1,0.5-0.3,0.7-0.5
				c0.2-0.2,0.3-0.4,0.4-0.7c0.1-0.3,0.2-0.6,0.2-0.9v0c0-0.3-0.1-0.6-0.2-0.9c-0.1-0.3-0.3-0.5-0.4-0.7c-0.2-0.2-0.4-0.4-0.7-0.5
				c-0.3-0.1-0.5-0.2-0.9-0.2s-0.6,0.1-0.9,0.2c-0.3,0.1-0.5,0.3-0.7,0.5c-0.2,0.2-0.3,0.4-0.4,0.7c-0.1,0.3-0.2,0.6-0.2,0.9v0
				c0,0.3,0.1,0.6,0.2,0.9c0.1,0.3,0.3,0.5,0.4,0.7c0.2,0.2,0.4,0.4,0.7,0.5C405.1,362.8,405.3,362.8,405.6,362.8z"/>
		</g>
		<g>
			<path class="st15" d="M413.9,363.4c-0.4,0-0.8-0.1-1.2-0.2c-0.3-0.1-0.6-0.3-0.9-0.6c-0.2-0.3-0.4-0.5-0.5-0.9
				c-0.1-0.3-0.2-0.7-0.2-1.1v0c0-0.4,0.1-0.7,0.2-1.1c0.1-0.3,0.3-0.6,0.6-0.9c0.2-0.3,0.5-0.5,0.9-0.6c0.3-0.2,0.7-0.2,1.1-0.2
				c0.2,0,0.4,0,0.6,0c0.2,0,0.4,0.1,0.5,0.1c0.2,0.1,0.3,0.1,0.5,0.2c0.1,0.1,0.3,0.2,0.4,0.3l-0.4,0.5c-0.1-0.1-0.2-0.2-0.3-0.3
				c-0.1-0.1-0.2-0.1-0.4-0.2c-0.1-0.1-0.3-0.1-0.4-0.1c-0.2,0-0.3,0-0.5,0c-0.3,0-0.6,0.1-0.8,0.2c-0.3,0.1-0.5,0.3-0.7,0.5
				c-0.2,0.2-0.3,0.4-0.4,0.7s-0.2,0.6-0.2,0.9v0c0,0.3,0.1,0.6,0.2,0.9c0.1,0.3,0.2,0.5,0.4,0.7c0.2,0.2,0.4,0.4,0.7,0.5
				c0.3,0.1,0.6,0.2,0.9,0.2c0.3,0,0.6-0.1,0.9-0.2c0.3-0.1,0.5-0.2,0.7-0.4V361h-1.7v-0.6h2.2v2.2c-0.3,0.2-0.6,0.4-0.9,0.6
				C414.8,363.3,414.4,363.4,413.9,363.4z"/>
		</g>
		<g>
			<path class="st15" d="M419.2,357.9h2.3c0.3,0,0.6,0,0.9,0.1c0.3,0.1,0.5,0.2,0.6,0.4c0.1,0.1,0.2,0.3,0.3,0.5
				c0.1,0.2,0.1,0.4,0.1,0.6v0c0,0.2,0,0.4-0.1,0.6c-0.1,0.2-0.2,0.3-0.3,0.5c-0.1,0.1-0.3,0.2-0.5,0.3s-0.4,0.1-0.6,0.2l1.7,2.2
				h-0.8l-1.6-2.1h0h-1.5v2.1h-0.6V357.9z M421.4,360.6c0.2,0,0.4,0,0.6-0.1c0.2-0.1,0.3-0.1,0.4-0.2c0.1-0.1,0.2-0.2,0.3-0.3
				c0.1-0.1,0.1-0.3,0.1-0.5v0c0-0.3-0.1-0.6-0.4-0.8c-0.2-0.2-0.6-0.3-1-0.3h-1.7v2.2H421.4z"/>
		</g>
		<g>
			<path class="st15" d="M428.5,357.8h0.6l2.5,5.5h-0.7l-0.6-1.4h-3l-0.6,1.4H426L428.5,357.8z M430,361.3l-1.2-2.8l-1.2,2.8H430z"
				/>
		</g>
		<g>
			<path class="st15" d="M434.3,357.9h3.9v0.6h-3.3v1.9h2.9v0.5h-2.9v2.4h-0.6V357.9z"/>
		</g>
		<g>
			<path class="st15" d="M441.1,357.9h0.6v5.4h-0.6V357.9z"/>
		</g>
		<g>
			<path class="st15" d="M447,357.8h0.6l2.5,5.5h-0.7l-0.6-1.4h-3l-0.6,1.4h-0.6L447,357.8z M448.5,361.3l-1.2-2.8l-1.2,2.8H448.5z"
				/>
		</g>
	</g>
	<g id="BQmKKr_8_">
		<g>
			<g>
				<g>
					<path class="st15" d="M365.1,329.9c0.9-1,1.8-2,2.7-2.9c1.3-1.3,2.6-2.6,4-3.9c0.2-0.2,0.6-0.4,0.9-0.5c0.7-0.3,1.2,0,1.2,0.8
						c0,0.7-0.1,1.4-0.1,2.1c-0.1,0.9-0.3,1.8-0.3,2.7c-0.1,1.5,0.6,2.1,1.9,1.5c1.9-0.9,3.8-2,5.5-3.3c1.2-0.9,2.2-2.1,3.4-3.2
						c0.6-0.5,1.3-1,2-1.3c0.2-0.1,0.7-0.1,0.9,0.1c0.2,0.2,0.3,0.7,0.2,1c-0.3,1.3-1.2,2.3-2.4,2.8c-1.6,0.6-2.1,2-2.5,3.4
						c-0.2,0.6-0.2,1.3-0.2,2c0,1,0.8,1.5,1.8,1.5c1.7-0.1,3.1-0.8,4.5-1.7c2.9-1.8,5.8-3.7,8.7-5.6c0.3-0.2,0.5-0.4,0.6-0.6
						c1.6-2.4,3.9-3.6,6.5-4.4c0.7-0.2,1.4-0.1,1.9,0.6c0.5,0.7,0.3,1.5-0.2,2c-0.7,0.8-1.5,1.5-2.4,2.1c-0.4,0.3-0.9,0.5-1.3-0.1
						c-0.4-0.6,0.1-0.8,0.6-1.1c0.8-0.5,1.6-1,2.1-2.2c-0.6,0.1-1.1,0.1-1.5,0.3c-1.5,0.7-3,1.6-4.1,2.9c-1.3,1.5-1.4,3.3-0.1,4.8
						c0.6,0.7,1.2,1.4,1.9,2.1c1.6-0.8,3.1-1.6,4.7-2.3c1.6-0.8,3.2-1.5,4.8-2.3c1.5-0.7,2.9-1.8,4.5-2.4c0.1,0.1,0.2,0.2,0.2,0.3
						c-0.3,0.3-0.5,0.6-0.8,0.8c-3.9,2-7.8,4-11.8,6c-0.3,0.2-0.6,0.3-1,0.5c0.6,0.7,1.1,1.4,1.6,2.1c1.7,2.2,1.6,4.9-0.1,7
						c-1.9,2.3-4.4,3.4-7.2,4.1c-1.8,0.4-3.6,0.6-5.4,0.2c-2.4-0.6-3.2-2.6-1.9-4.7c1.5-2.5,3.6-4.3,6-5.7c1.6-1,3.3-1.9,5.1-2.9
						c-1.6-1.7-3.3-3.4-2.8-6.3c-0.4,0.3-0.7,0.4-0.9,0.6c-2.3,1.6-4.6,3.2-7,4.7c-1.4,0.9-3,1.7-4.5,2.2c-2.2,0.7-3.7-0.4-3.7-2.7
						c0-1.3,0.4-2.7,0.6-4.1c-0.1,0.1-0.4,0.2-0.6,0.4c-1.6,1-3.1,2-4.7,2.9c-0.4,0.2-0.8,0.3-1.2,0.4c-1.4,0.4-2.3-0.1-2.4-1.5
						c-0.1-1.1,0-2.2,0.1-3.4c0-0.7,0.2-1.4,0.2-2.1c-0.1-0.1-0.1-0.1-0.2-0.2c-0.6,0.5-1.3,0.9-1.8,1.5c-1.4,1.5-2.7,3.1-4,4.7
						c-0.7,0.8-1.4,1.6-2.1,2.3c-0.3,0.2-0.9,0.3-1.2,0.2c-0.3-0.2-0.5-0.7-0.5-1.1c0.1-0.9,0.3-1.8,0.5-2.8
						c-2.6,1.8-5.1,3.5-7.6,5.2c-0.3,0.2-0.4,0.8-0.5,1.2c-1.4,4.9-2.6,9.8-4.1,14.6c-1.4,4.5-3.2,8.9-5.7,13c-1.8,3-4,5.7-7.1,7.5
						c-2.6,1.6-5.4,2.2-8.4,1.2c-4.6-1.5-6.8-5.9-5.1-10.5c1.4-3.6,3.7-6.7,6.5-9.3c1.4-1.3,2.2-2.7,2.5-4.6
						c0.9-7.1,3.1-14,5.6-20.7c1-2.6,1.9-5.3,2.9-7.9c0.1-0.2,0.2-0.5,0.3-0.8c-1.3,0.1-2.5,0.3-3.7,0.4c-3.8,0.5-7.7,1.1-11.5,1.7
						c-0.5,0.1-1.1,0.4-1.4,0.8c-7.3,9-13.7,18.6-20,28.3c-1.5,2.2-3.1,4.4-4.6,6.6c-0.3,0.4-0.4,0.8-0.7,1.2
						c-0.1,0.2-0.2,0.4-0.4,0.5c-0.6,0.1-1.2,0.3-1.8,0.3c-0.3,0-0.6-0.5-0.8-0.8c0.3-0.3,0.5-0.8,0.8-0.8c1,0.1,1.5-0.6,2-1.3
						c2.8-4.1,5.6-8.3,8.3-12.5c4.8-7.3,9.7-14.5,15.2-21.3c0.1-0.1,0.2-0.3,0.4-0.6c-1.2,0.2-2.3,0.3-3.3,0.6
						c-6.1,1.2-12.3,2.5-18.4,3.7c-0.6,0.1-1.3,0.1-1.9,0.3c-0.5,0.1-1,0.3-1.6,0.5c-0.2,0.1-0.5,0.1-0.7,0
						c-0.1-0.1-0.1-0.4-0.1-0.6c0.1-0.8,1-1.4,1.8-1.4c0.9,0.1,1.8,0.2,2.7,0c5.3-0.9,10.6-2,16-3c1.9-0.3,3.8-0.6,5.7-1
						c0.4-0.1,1-0.4,1.2-0.7c3.4-3.9,6.7-7.9,10.1-11.7c3.9-4.4,7.9-8.6,12.4-12.4c0.9-0.8,1.9-1.4,3-2.1c0.5-0.3,1.4-0.6,1.8,0
						c0.3,0.4,0.4,1.3,0.3,1.8c-0.4,1.6-1,3.1-1.6,4.6c-2.2,5.4-4.5,10.8-6.8,16.2c-0.1,0.4-0.3,0.7-0.5,1.3c1-0.1,1.8-0.1,2.7-0.3
						c4.9-0.7,9.8-1.5,14.6-2.3c0.8-0.1,1.7,0,2.6,0.1c0.6,0.1,0.9,0.5,0.7,1.1c-0.2,0.6-0.6,1-1.3,0.9c-0.3-0.1-0.4-0.4-0.7-0.7
						c0-0.1,0.1-0.2,0.1-0.2c-1.4,0.2-2.8,0.5-4.1,0.6c-4,0.5-8,0.9-12,1.4c-0.8,0.1-1.7,0.2-2.5,0.4c-0.2,0-0.6,0.3-0.6,0.5
						c-3.5,8.8-6.7,17.7-8.3,27.1c-0.2,0.9-0.3,1.8-0.4,2.7c0,0.1,0,0.1,0.1,0.3c0.1-0.1,0.2-0.1,0.3-0.2c5.7-4.9,11.9-9,18-13.4
						c0.3-0.2,0.7-0.6,0.7-0.9c0.7-3.1,1.3-6.2,2-9.3c0-0.2,0-0.4,0.1-0.8c-0.5,0.5-0.9,0.8-1.3,1.2c-2,1.9-4.1,3.8-6.1,5.7
						c-0.4,0.4-1,0.6-1.6,0.8c-0.9,0.3-1.7-0.5-1.4-1.4c0.8-2.6,2.4-4.8,4.5-6.5c1-0.8,2.2-0.1,2.3,1.3c0,0.2,0,0.5-0.1,1
						c0.5-0.5,0.9-0.9,1.3-1.3c0.6-0.6,1.1-1.2,1.7-1.6c0.3-0.2,0.9-0.4,1.2-0.2c0.3,0.2,0.6,0.8,0.6,1.2c0,1-0.2,2-0.4,3
						c-0.4,1.9-0.8,3.8-1.2,5.7c0,0.1,0,0.3-0.1,0.5c0.3-0.2,0.6-0.3,0.8-0.4c2.3-1.5,4.6-3,6.8-4.6c0.6-0.4,1.1-1.1,1.5-1.8
						c0.5-0.9,0.9-1.8,1.4-2.7c0.2-0.3,0.8-0.7,1.1-0.6c0.6,0.2,0.4,0.8,0.2,1.2c-0.6,1.3-1.1,2.7-1.8,4c-0.4,0.8-1,1.6-1.5,2.4
						C364.9,329.8,365,329.8,365.1,329.9z M333.4,350.9c-1,1-1.9,1.9-2.7,2.9c-1.8,2.1-3.5,4.3-4.5,6.9c-1.8,5,1.4,9.6,6.8,9.6
						c2.5,0,4.6-1,6.5-2.5c3.1-2.6,5.2-5.9,6.9-9.5c3-6.2,5.1-12.8,6.8-19.5c0.3-1.3,0.7-2.6,1-3.9c-1.4,0.8-2.6,1.7-3.9,2.5
						c-5,3.5-10,7.2-14.5,11.3c-0.2,0.2-0.5,0.5-0.5,0.8c-0.1,1.4,0,2.8,0,4.3c1,0,1.1,0.7,1,1.4c-0.1,0.7-0.4,1.2-1.1,1.3
						c-0.8,0.1-1.1-0.6-1.2-1.3C333.8,353.9,333.6,352.5,333.4,350.9z M327.6,318.4c0.6,0,0.8-0.1,1.1-0.1c4.6-0.7,9.2-1.3,13.8-2
						c0.6-0.1,0.9-0.3,1.2-0.9c2.6-6.3,5.3-12.6,7.9-18.9c0.4-1,0.7-2.1,1-3.2c0.1-0.2,0-0.4,0-0.8c-0.6,0.3-1,0.5-1.4,0.8
						c-0.9,0.7-1.8,1.3-2.6,2c-5.5,5-10.5,10.5-15.3,16.1C331.4,313.7,329.6,316,327.6,318.4z M392.9,345.4
						C393,345.3,393,345.3,392.9,345.4c0.6-0.1,1.1-0.2,1.6-0.3c2.9-0.5,5.5-1.5,7.6-3.5c1.7-1.6,2-3.8,0.8-5.7
						c-0.6-0.9-1.3-1.7-2.1-2.4c-0.1-0.1-0.5-0.2-0.7-0.1c-3.2,1.7-6.4,3.4-9,6c-0.9,0.9-1.6,1.9-2,3.1c-0.3,1.2,0,1.9,1.2,2.3
						C391.2,345.1,392.1,345.2,392.9,345.4z M348.1,328.8c1.9-0.7,3.9-3.5,3.5-4.9C350.1,324.7,348.3,327.2,348.1,328.8z
						 M384.4,324.9c0.1,0.1,0.1,0.1,0.2,0.2c0.7-0.6,1.6-1,1.5-2.2C385.6,323.6,385,324.3,384.4,324.9z"/>
				</g>
				<g>
					<path class="st15" d="M333.2,371.6c-1,0-2-0.2-2.9-0.5c-2.3-0.7-4.1-2.2-5-4.2c-0.9-2-1-4.3-0.2-6.5c1.3-3.4,3.4-6.4,6.6-9.3
						c1.5-1.4,2.2-2.7,2.4-4.5c1-7.8,3.5-15.2,5.7-20.7c0.7-1.9,1.4-3.8,2.1-5.6c0.3-0.8,0.6-1.6,0.9-2.3c0.1-0.1,0.1-0.3,0.2-0.5
						c0,0,0,0,0,0c-0.3,0-0.6,0.1-0.9,0.1c-0.9,0.1-1.7,0.2-2.5,0.3c-3.8,0.5-7.7,1.1-11.5,1.7c-0.4,0.1-1,0.4-1.3,0.7
						c-7.7,9.5-14.4,19.7-20,28.3c-0.9,1.4-1.9,2.8-2.9,4.2c-0.6,0.8-1.1,1.6-1.7,2.4c-0.1,0.2-0.3,0.5-0.4,0.7
						c-0.1,0.2-0.2,0.4-0.3,0.5l0,0c-0.1,0.2-0.3,0.5-0.5,0.5l-0.1,0c-0.6,0.1-1.2,0.3-1.8,0.2c-0.3,0-0.5-0.3-0.7-0.5
						c-0.1-0.1-0.2-0.2-0.2-0.3l-0.1-0.1l0.1-0.1c0.1-0.1,0.2-0.2,0.2-0.3c0.2-0.3,0.4-0.6,0.7-0.6c0.9,0.1,1.3-0.5,1.8-1.2
						c2.6-3.8,5.3-7.9,8.3-12.5c4.4-6.6,9.5-14.2,15.2-21.3c0.1-0.1,0.1-0.1,0.2-0.2c-0.2,0-0.5,0.1-0.7,0.1
						c-0.8,0.1-1.5,0.2-2.2,0.4c-3.2,0.6-6.3,1.3-9.5,1.9c-3,0.6-6,1.2-8.9,1.8c-0.3,0.1-0.6,0.1-0.9,0.1c-0.3,0-0.7,0.1-1,0.1
						c-0.3,0.1-0.6,0.2-0.9,0.3c-0.2,0.1-0.4,0.2-0.7,0.2c-0.3,0.1-0.6,0.1-0.8,0c-0.3-0.1-0.2-0.8-0.2-0.8c0.1-0.9,1.2-1.6,2-1.6
						l0.4,0c0.8,0.1,1.5,0.1,2.2,0c3.4-0.6,6.8-1.2,10.1-1.9c2-0.4,3.9-0.7,5.9-1.1c0.8-0.2,1.7-0.3,2.5-0.4c1-0.2,2.1-0.3,3.1-0.5
						c0.4-0.1,0.9-0.3,1.1-0.6c1.3-1.5,2.7-3.1,4-4.7c2-2.3,4-4.7,6.1-7.1c3.5-3.9,7.7-8.4,12.4-12.4c0.8-0.7,1.8-1.3,3-2.1
						c0.9-0.5,1.6-0.5,2.1,0c0.4,0.5,0.5,1.4,0.3,2c-0.4,1.4-0.9,2.9-1.6,4.6c-1.5,3.7-3.1,7.4-4.6,11c-0.7,1.8-1.5,3.5-2.2,5.3
						c-0.1,0.2-0.2,0.5-0.3,0.8c0,0.1,0,0.1-0.1,0.2c0.2,0,0.4,0,0.6-0.1c0.6-0.1,1.2-0.1,1.7-0.2c1.8-0.3,3.6-0.6,5.4-0.8
						c3-0.5,6.1-1,9.2-1.4c0.9-0.1,1.8,0,2.6,0.1l0,0c0.3,0,0.6,0.2,0.8,0.4c0.2,0.3,0.2,0.6,0.1,1c-0.2,0.8-0.8,1.1-1.5,1
						c-0.3-0.1-0.4-0.3-0.6-0.5c-0.1-0.1-0.1-0.2-0.2-0.2l-0.1-0.1l0,0c-0.3,0.1-0.6,0.1-1,0.2c-0.9,0.2-1.9,0.3-2.9,0.4
						c-2.6,0.3-5.2,0.6-7.7,0.9c-1.4,0.2-2.9,0.3-4.3,0.5l-0.1,0c-0.8,0.1-1.6,0.2-2.4,0.3c-0.2,0-0.4,0.2-0.5,0.4
						c-3.3,8.4-6.6,17.4-8.3,27.1c-0.1,0.7-0.2,1.4-0.3,2.1l-0.1,0.6c0,0,0,0,0,0c4.1-3.5,8.6-6.7,13-9.8c1.7-1.2,3.4-2.4,5-3.6
						c0.3-0.2,0.6-0.5,0.7-0.8c0.6-2.6,1.1-5.2,1.7-7.8l0.3-1.6c0-0.1,0-0.2,0-0.3l-0.1,0.1c-0.3,0.3-0.5,0.5-0.8,0.7
						c-0.6,0.5-1.1,1-1.7,1.6c-1.5,1.4-3,2.8-4.5,4.1c-0.5,0.4-1.2,0.7-1.6,0.8c-0.5,0.2-1.1,0-1.4-0.3c-0.3-0.3-0.4-0.8-0.3-1.3
						c0.9-2.7,2.4-4.9,4.6-6.6c0.5-0.4,1.1-0.5,1.6-0.2c0.6,0.3,0.9,0.9,1,1.6c0,0.1,0,0.3,0,0.5l0.9-0.9c0.2-0.2,0.3-0.3,0.5-0.5
						c0.4-0.4,0.8-0.8,1.2-1.2c0.3-0.3,1.1-0.5,1.4-0.3c0.4,0.2,0.7,0.9,0.7,1.4c0,1.1-0.2,2.1-0.4,3c-0.3,1.3-0.5,2.6-0.8,3.9
						c-0.1,0.6-0.3,1.2-0.4,1.8c0,0,0,0.1,0,0.2c0.2-0.1,0.3-0.2,0.4-0.2c0.5-0.4,1.1-0.7,1.6-1.1c1.7-1.1,3.5-2.3,5.2-3.5
						c0.6-0.4,1-1.1,1.4-1.7c0.3-0.4,0.5-0.8,0.7-1.3c0.2-0.5,0.5-1,0.8-1.4c0.2-0.4,0.9-0.8,1.3-0.7c0.2,0.1,0.4,0.2,0.5,0.4
						c0.2,0.3,0,0.8-0.1,1.1l-0.3,0.7c-0.5,1.1-1,2.2-1.5,3.3c-0.3,0.6-0.7,1.1-1,1.7c-0.1,0.2-0.2,0.4-0.4,0.6l0.1,0
						c0.2-0.3,0.5-0.5,0.7-0.8c0.6-0.7,1.2-1.4,1.9-2c1.4-1.4,2.8-2.8,4-3.9c0.3-0.3,0.7-0.4,0.9-0.5c0.5-0.2,0.9-0.1,1.1,0
						c0.2,0.1,0.4,0.4,0.4,0.9c0,0.6,0,1.3-0.1,1.9l0,0.2c0,0.4-0.1,0.7-0.1,1.1c-0.1,0.5-0.2,1.1-0.2,1.6c0,0.7,0.1,1.2,0.4,1.4
						c0.3,0.2,0.9,0.1,1.2-0.1c1.8-0.9,3.7-2,5.5-3.3c0.7-0.5,1.4-1.2,2-1.9c0.4-0.4,0.9-0.9,1.3-1.3c0.7-0.6,1.4-1,2.1-1.4
						c0.3-0.2,0.9-0.1,1.1,0.2c0.2,0.3,0.3,0.8,0.2,1.2c-0.3,1.4-1.3,2.4-2.5,2.9c-1.5,0.6-2,1.8-2.4,3.3c-0.2,0.5-0.2,1.1-0.2,1.9
						c0,0.4,0.2,0.7,0.4,1c0.3,0.2,0.7,0.4,1.1,0.3c1.4-0.1,2.8-0.6,4.4-1.6c3.1-1.9,6.1-3.9,8.7-5.6c0.2-0.1,0.4-0.4,0.6-0.6
						c1.4-2.1,3.5-3.5,6.6-4.5c0.9-0.3,1.7,0,2.1,0.7c0.5,0.8,0.4,1.6-0.2,2.3c-0.7,0.8-1.6,1.5-2.4,2.2c-0.3,0.3-0.7,0.4-1,0.3
						c-0.3,0-0.5-0.2-0.6-0.5c-0.1-0.2-0.2-0.5-0.1-0.7c0.1-0.3,0.4-0.5,0.7-0.7l0.1,0c0.8-0.5,1.4-0.9,1.8-1.8c-0.1,0-0.1,0-0.2,0
						c-0.3,0-0.6,0.1-0.8,0.2c-1.3,0.6-2.8,1.5-4.1,2.9c-1.3,1.5-1.3,3.1-0.1,4.6c0.4,0.5,0.8,0.9,1.3,1.4c0.2,0.2,0.3,0.4,0.5,0.6
						l1.3-0.6c1.1-0.5,2.2-1.1,3.3-1.6c1.7-0.8,3.3-1.6,4.8-2.3c0.7-0.3,1.3-0.7,1.9-1.1c0.8-0.5,1.7-1,2.6-1.3l0.1-0.1l0.4,0.6
						l-0.1,0.1c-0.1,0.1-0.2,0.2-0.2,0.3c-0.2,0.2-0.4,0.4-0.6,0.5c-3,1.5-6.1,3.1-9.1,4.6l-2.7,1.4c-0.2,0.1-0.4,0.2-0.7,0.3
						l-0.2,0.1l0.4,0.5c0.4,0.5,0.7,1,1.1,1.4c1.7,2.3,1.7,5.1-0.1,7.3c-1.7,2-4,3.3-7.3,4.1c-2.2,0.5-3.9,0.6-5.5,0.2
						c-1.2-0.3-2.1-1-2.5-1.9c-0.4-0.9-0.2-2,0.4-3.2c1.4-2.3,3.3-4.2,6.1-5.8c1.1-0.7,2.3-1.3,3.5-2c0.5-0.3,0.9-0.5,1.4-0.8
						l-0.1-0.1c-1.4-1.5-2.9-3.1-2.6-5.7c0,0,0,0,0,0c-0.2,0.1-0.4,0.2-0.5,0.3c-0.7,0.5-1.4,1-2.1,1.5c-1.6,1.1-3.2,2.2-4.9,3.3
						c-1.6,1-3.1,1.7-4.6,2.2c-1.2,0.4-2.1,0.3-2.9-0.2c-0.7-0.5-1.1-1.4-1.1-2.7c0-0.9,0.2-1.9,0.4-2.8c0.1-0.3,0.1-0.6,0.2-0.8
						l-0.2,0.1c-0.4,0.3-0.8,0.5-1.2,0.8c-1.1,0.7-2.3,1.4-3.4,2.1c-0.3,0.2-0.7,0.3-1,0.4l-0.2,0.1c-0.8,0.2-1.4,0.2-1.9-0.1
						c-0.4-0.3-0.7-0.8-0.8-1.6c-0.1-0.9,0-1.9,0-2.8c0-0.2,0-0.4,0-0.6c0-0.5,0.1-1,0.2-1.4c0-0.2,0-0.4,0.1-0.5
						c-0.1,0.1-0.3,0.2-0.4,0.3c-0.4,0.3-0.8,0.6-1.2,1c-0.8,0.9-1.6,1.9-2.4,2.8c-0.5,0.6-1.1,1.3-1.6,1.9
						c-0.7,0.8-1.4,1.6-2.2,2.3c-0.3,0.3-1.1,0.4-1.4,0.2c-0.4-0.2-0.6-0.9-0.6-1.3c0.1-0.7,0.2-1.3,0.3-2c0-0.1,0.1-0.3,0.1-0.4
						c-0.5,0.3-0.9,0.6-1.4,0.9c-2,1.4-3.9,2.6-5.8,4c-0.2,0.1-0.3,0.6-0.4,0.9l0,0.2c-0.5,1.6-0.9,3.3-1.3,4.9
						c-0.9,3.2-1.8,6.5-2.8,9.8c-1.5,5-3.4,9.2-5.7,13c-2.2,3.7-4.4,6-7.1,7.6C336.9,371,335,371.6,333.2,371.6z M343.3,316.9
						l-0.1,0.3c0,0.1-0.1,0.2-0.1,0.3c-0.1,0.2-0.1,0.4-0.2,0.5c-0.3,0.8-0.6,1.6-0.9,2.3c-0.7,1.8-1.4,3.7-2.1,5.6
						c-2.1,5.5-4.6,12.8-5.6,20.6c-0.2,1.9-1,3.3-2.5,4.7c-3.1,2.9-5.2,5.9-6.5,9.2c-0.8,2.1-0.8,4.3,0.1,6.2c0.9,1.9,2.6,3.3,4.8,4
						c2.7,0.9,5.4,0.5,8.3-1.2c2.6-1.6,4.8-3.8,7-7.4c2.3-3.8,4.2-8,5.7-12.9c1-3.2,1.9-6.6,2.8-9.8c0.4-1.6,0.9-3.3,1.3-4.9l0-0.2
						c0.1-0.4,0.2-0.9,0.6-1.1c1.9-1.4,3.8-2.6,5.8-4c0.6-0.4,1.2-0.8,1.8-1.2l0.4-0.3l-0.1,0.5c-0.1,0.3-0.1,0.6-0.2,0.9
						c-0.1,0.7-0.3,1.3-0.3,1.9c0,0.3,0.2,0.8,0.3,0.9c0.2,0.1,0.8,0,1-0.2c0.8-0.7,1.4-1.5,2.1-2.2c0.6-0.6,1.1-1.3,1.6-1.9
						c0.8-0.9,1.6-1.9,2.4-2.8c0.4-0.4,0.8-0.7,1.2-1c0.2-0.1,0.4-0.3,0.6-0.4l0.1-0.1l0.4,0.3l0,0.1c0,0.2-0.1,0.4-0.1,0.6
						c-0.1,0.5-0.1,0.9-0.2,1.4c0,0.2,0,0.4,0,0.6c-0.1,0.9-0.1,1.8,0,2.7c0.1,0.6,0.3,1,0.6,1.3c0.4,0.2,0.9,0.3,1.5,0.1l0.2-0.1
						c0.3-0.1,0.7-0.2,0.9-0.4c1.1-0.7,2.3-1.4,3.4-2.1c0.4-0.3,0.8-0.5,1.2-0.8l1-0.6l-0.1,0.4c-0.1,0.4-0.2,0.9-0.2,1.3
						c-0.2,0.9-0.4,1.8-0.4,2.7c0,1.1,0.3,1.9,1,2.4c0.6,0.4,1.5,0.5,2.5,0.2c1.4-0.5,2.9-1.2,4.5-2.2c1.7-1,3.3-2.2,4.9-3.3
						c0.7-0.5,1.4-1,2.1-1.5c0.2-0.1,0.3-0.2,0.5-0.3c0.1-0.1,0.2-0.1,0.4-0.2l0.4-0.2l-0.1,0.4c-0.5,2.6,0.9,4.1,2.4,5.8l0.5,0.5
						l-0.2,0.1c-0.6,0.3-1.1,0.6-1.6,0.9c-1.2,0.7-2.3,1.3-3.4,2c-2.7,1.6-4.6,3.4-5.9,5.7c-0.6,1-0.7,2-0.4,2.8
						c0.3,0.8,1.1,1.4,2.2,1.6c1.5,0.4,3.2,0.3,5.3-0.2c3.2-0.8,5.4-2,7.1-4c1.7-2,1.7-4.6,0.1-6.8c-0.4-0.5-0.7-0.9-1.1-1.4
						l-0.7-0.9l0.6-0.3c0.2-0.1,0.5-0.2,0.7-0.3l2.7-1.4c3-1.5,6.1-3.1,9.1-4.6c0.2-0.1,0.3-0.3,0.5-0.5c0-0.1,0.1-0.1,0.1-0.1
						l-0.1-0.1c-0.8,0.3-1.6,0.8-2.4,1.3c-0.6,0.4-1.3,0.8-2,1.1c-1.5,0.7-3.1,1.4-4.8,2.3c-1.1,0.5-2.2,1.1-3.3,1.6l-1.6,0.8
						L401,332c-0.2-0.2-0.4-0.4-0.6-0.7c-0.5-0.5-0.9-0.9-1.3-1.4c-1.3-1.6-1.3-3.5,0.1-5.1c1.3-1.5,2.9-2.3,4.2-3
						c0.3-0.1,0.6-0.2,1-0.2c0.2,0,0.3,0,0.5-0.1l0.3-0.1l-0.1,0.3c-0.5,1.3-1.4,1.8-2.2,2.3l-0.1,0c-0.2,0.1-0.5,0.3-0.5,0.4
						c0,0.1,0,0.2,0.1,0.4c0.1,0.2,0.2,0.3,0.4,0.3c0.2,0,0.4-0.1,0.6-0.2c0.8-0.6,1.6-1.3,2.4-2.1c0.5-0.5,0.5-1.2,0.2-1.8
						c-0.4-0.7-1.1-0.6-1.7-0.5c-3,0.9-5.1,2.3-6.4,4.3c-0.2,0.3-0.4,0.5-0.7,0.7c-2.6,1.7-5.6,3.6-8.7,5.6c-1.6,1-3.1,1.6-4.6,1.7
						c-0.6,0-1.1-0.1-1.4-0.4c-0.3-0.3-0.5-0.7-0.5-1.2c0-0.8,0-1.5,0.2-2.1c0.4-1.5,1-2.9,2.7-3.5c1.2-0.4,2-1.4,2.3-2.6
						c0.1-0.3,0-0.6-0.1-0.8c-0.1-0.1-0.5-0.2-0.7-0.1c-0.6,0.3-1.4,0.8-2,1.3c-0.4,0.4-0.9,0.8-1.3,1.3c-0.6,0.7-1.3,1.4-2.1,1.9
						c-1.8,1.3-3.7,2.4-5.5,3.3c-0.8,0.4-1.3,0.3-1.6,0.1c-0.4-0.3-0.6-0.9-0.6-1.8c0-0.5,0.1-1.1,0.2-1.6c0.1-0.4,0.1-0.7,0.1-1.1
						l0-0.2c0.1-0.6,0.1-1.3,0.1-1.9c0-0.2-0.1-0.5-0.3-0.6c-0.2-0.1-0.5-0.1-0.7,0c-0.2,0.1-0.6,0.2-0.8,0.5
						c-1.2,1.1-2.6,2.5-4,3.9c-0.6,0.6-1.3,1.3-1.9,2c-0.3,0.3-0.5,0.6-0.8,0.9l-0.1,0.1l-0.7-0.4l0.1-0.2c0.2-0.2,0.3-0.5,0.5-0.7
						c0.4-0.5,0.7-1.1,1-1.6c0.5-1.1,1-2.2,1.5-3.3l0.3-0.7c0.1-0.2,0.2-0.6,0.1-0.8c0-0.1-0.1-0.1-0.2-0.2
						c-0.2-0.1-0.7,0.2-0.9,0.5c-0.3,0.4-0.5,0.9-0.7,1.4c-0.2,0.4-0.4,0.9-0.7,1.3c-0.4,0.7-0.9,1.4-1.5,1.8
						c-1.7,1.2-3.5,2.4-5.2,3.5c-0.5,0.4-1.1,0.7-1.6,1.1c-0.2,0.1-0.3,0.2-0.5,0.3c-0.1,0-0.2,0.1-0.3,0.2l-0.3,0.2l0-0.4
						c0-0.1,0-0.2,0-0.3c0-0.1,0-0.2,0-0.3c0.1-0.6,0.3-1.2,0.4-1.8c0.3-1.3,0.6-2.6,0.8-3.9c0.2-0.9,0.4-1.9,0.4-3
						c0-0.3-0.2-0.8-0.5-1c-0.2-0.1-0.7,0-1,0.2c-0.4,0.3-0.8,0.7-1.2,1.1c-0.2,0.2-0.3,0.3-0.5,0.5l-1.7,1.6l0-0.5
						c0-0.2,0-0.3,0-0.5c0-0.2,0-0.4,0-0.5c0-0.6-0.3-1.1-0.8-1.3c-0.4-0.2-0.8-0.1-1.2,0.2c-2.1,1.6-3.6,3.8-4.5,6.4
						c-0.1,0.4-0.1,0.7,0.2,0.9c0.2,0.2,0.6,0.3,1,0.2c0.4-0.1,1-0.4,1.5-0.8c1.5-1.4,3-2.8,4.5-4.1c0.6-0.5,1.1-1,1.7-1.6
						c0.3-0.2,0.5-0.5,0.8-0.7l0.9-0.8l0,0.5c0,0.2,0,0.3,0,0.4c0,0.2,0,0.3,0,0.4l-0.3,1.6c-0.5,2.6-1.1,5.2-1.7,7.8
						c-0.1,0.5-0.7,0.9-0.8,1.1c-1.7,1.2-3.4,2.4-5,3.6c-4.3,3.1-8.8,6.3-12.9,9.8c-0.1,0.1-0.1,0.1-0.2,0.1c0,0-0.1,0-0.1,0.1
						l-0.2,0.1l-0.1-0.2c0,0,0-0.1,0-0.1c0-0.1-0.1-0.2,0-0.2l0.1-0.6c0.1-0.7,0.2-1.4,0.3-2.1c1.6-9.7,4.9-18.8,8.3-27.2
						c0.1-0.3,0.5-0.6,0.8-0.6c0.8-0.2,1.6-0.2,2.4-0.3l0.1,0c1.4-0.2,2.9-0.3,4.3-0.5c2.5-0.3,5.1-0.6,7.7-0.9
						c0.9-0.1,1.9-0.3,2.8-0.4c0.4-0.1,0.9-0.1,1.3-0.2l0.3,0l-0.1,0.4c0,0.1,0.1,0.1,0.1,0.2c0.1,0.1,0.2,0.3,0.3,0.3
						c0.7,0.1,1-0.5,1-0.7c0.1-0.3,0.1-0.5-0.1-0.6c-0.1-0.1-0.3-0.2-0.5-0.2l0,0c-0.8-0.1-1.7-0.2-2.5-0.1
						c-3.1,0.5-6.2,0.9-9.2,1.4c-1.8,0.3-3.6,0.6-5.4,0.8c-0.6,0.1-1.2,0.1-1.8,0.2c-0.3,0-0.6,0-0.9,0.1l-0.3,0l0.1-0.3
						c0.1-0.2,0.1-0.3,0.2-0.5c0.1-0.3,0.2-0.5,0.3-0.8c0.7-1.8,1.5-3.5,2.2-5.3c1.5-3.6,3.1-7.3,4.6-11c0.7-1.7,1.2-3.2,1.6-4.6
						c0.1-0.5,0-1.3-0.2-1.6c-0.4-0.5-1.2-0.1-1.5,0.1c-1.2,0.7-2.2,1.4-3,2c-4.7,4-8.9,8.5-12.4,12.3c-2.1,2.3-4.1,4.7-6.1,7.1
						c-1.3,1.5-2.7,3.1-4,4.7c-0.3,0.4-0.8,0.7-1.4,0.8c-1,0.2-2.1,0.4-3.1,0.5c-0.8,0.1-1.7,0.3-2.5,0.4c-2,0.4-3.9,0.7-5.9,1.1
						c-3.3,0.6-6.7,1.3-10.1,1.9c-0.8,0.1-1.6,0.1-2.4,0l-0.4,0c-0.6-0.1-1.5,0.5-1.5,1.2c0,0.2,0,0.4,0,0.4c0.2,0,0.4,0,0.5-0.1
						c0.2-0.1,0.4-0.1,0.6-0.2c0.3-0.1,0.6-0.2,0.9-0.3c0.3-0.1,0.7-0.1,1-0.1c0.3,0,0.6-0.1,0.9-0.1c3-0.6,6-1.2,8.9-1.8
						c3.2-0.6,6.3-1.3,9.5-1.9c0.7-0.1,1.4-0.3,2.2-0.4c0.4-0.1,0.8-0.1,1.1-0.2l0.5-0.1l-0.3,0.4c-0.1,0.1-0.1,0.2-0.2,0.3
						c-0.1,0.1-0.2,0.3-0.2,0.4c-5.7,7.1-10.8,14.7-15.2,21.3c-3,4.5-5.7,8.6-8.3,12.5c-0.4,0.7-1,1.5-2.2,1.4
						c-0.1,0-0.3,0.3-0.4,0.4c0,0.1-0.1,0.1-0.1,0.2c0,0.1,0.1,0.1,0.1,0.2c0.1,0.2,0.3,0.4,0.4,0.4c0.5,0,1.1-0.1,1.6-0.2l0.1,0
						c0.1,0,0.2-0.3,0.3-0.3l0,0c0.1-0.2,0.2-0.3,0.3-0.5c0.1-0.3,0.3-0.5,0.4-0.8c0.6-0.8,1.1-1.6,1.7-2.4c1-1.4,2-2.8,2.9-4.2
						c5.6-8.7,12.4-18.8,20-28.3c0.3-0.4,1-0.8,1.5-0.9c3.8-0.6,7.7-1.2,11.5-1.7c0.8-0.1,1.6-0.2,2.5-0.3c0.4,0,0.8-0.1,1.2-0.1
						L343.3,316.9z M299,324.6L299,324.6L299,324.6z M332.9,370.6c-2.6,0-4.8-1.1-6.2-3c-1.4-1.9-1.6-4.4-0.7-6.9
						c1-2.8,2.9-5.1,4.5-7c0.6-0.7,1.2-1.3,1.8-2c0.3-0.3,0.6-0.6,0.9-0.9l0.3-0.3l0.2,1.8c0.1,1,0.3,2,0.4,3
						c0.1,0.8,0.4,1.1,0.9,1.1c0.5,0,0.8-0.4,0.9-1.1c0-0.5,0-0.8-0.2-0.9c-0.1-0.2-0.4-0.2-0.7-0.2l-0.2,0v-0.2c0-0.4,0-0.8,0-1.1
						c0-1.1,0-2.1,0-3.1c0-0.3,0.3-0.7,0.6-0.9c4.9-4.4,10.1-8.2,14.6-11.3l0.4-0.3c1.1-0.8,2.2-1.6,3.5-2.2l0.4-0.2l-0.4,1.7
						c-0.2,0.9-0.5,1.8-0.7,2.7c-2,7.8-4.1,14-6.8,19.6c-2.1,4.4-4.3,7.3-7,9.6C337.6,369.7,335.4,370.6,332.9,370.6
						C333,370.6,333,370.6,332.9,370.6z M333.3,351.4c-0.2,0.2-0.4,0.4-0.6,0.6c-0.6,0.7-1.2,1.3-1.8,1.9c-1.6,1.8-3.4,4.1-4.4,6.9
						c-0.9,2.3-0.6,4.7,0.7,6.5c1.3,1.8,3.4,2.8,5.9,2.8c2.3,0,4.4-0.8,6.4-2.5c2.7-2.2,4.8-5.1,6.9-9.4c2.7-5.5,4.8-11.7,6.8-19.5
						c0.2-0.9,0.5-1.8,0.7-2.7l0.2-0.8c-1.1,0.6-2,1.3-3,2l-0.4,0.3c-4.4,3.1-9.6,6.9-14.5,11.3c-0.3,0.3-0.5,0.5-0.5,0.7
						c0,1,0,2,0,3.1c0,0.3,0,0.6,0,0.9c0.3,0,0.6,0.2,0.8,0.4c0.3,0.3,0.3,0.8,0.3,1.2c-0.1,0.9-0.6,1.4-1.3,1.5
						c-1.2,0.1-1.3-1-1.4-1.4c-0.1-1-0.3-1.9-0.4-3L333.3,351.4z M393.1,345.6l-0.2,0c-0.3-0.1-0.5-0.1-0.8-0.2
						c-0.6-0.1-1.2-0.2-1.8-0.4c-1.2-0.4-1.6-1.3-1.3-2.6c0.3-1.1,0.9-2.1,2-3.2c2.6-2.6,5.8-4.3,9.1-6c0.3-0.1,0.8-0.1,1,0.1
						c0.1,0.1,0.3,0.3,0.4,0.4c0.6,0.6,1.2,1.3,1.7,2.1c1.2,2,0.9,4.2-0.8,6c-1.9,1.8-4.4,3-7.8,3.6c-0.4,0.1-0.7,0.1-1.1,0.1
						c-0.1,0-0.2,0-0.4,0L393.1,345.6z M400.5,333.5c-0.1,0-0.1,0-0.2,0c-3.2,1.7-6.4,3.4-9,5.9c-1,1-1.6,2-1.9,3
						c-0.3,1.1,0,1.7,1,2.1c0.5,0.2,1.1,0.3,1.7,0.4c0.2,0,0.4,0.1,0.6,0.1l0,0l0.1,0c0.2,0,0.3,0,0.5,0c0.4,0,0.7-0.1,1.1-0.1
						c3.3-0.6,5.7-1.7,7.5-3.5c1.6-1.6,1.9-3.6,0.8-5.5c-0.4-0.7-1.1-1.4-1.6-2c-0.1-0.1-0.3-0.3-0.4-0.4
						C400.8,333.6,400.6,333.5,400.5,333.5z M347.8,329.1l0.1-0.3c0.3-1.6,2.1-4.2,3.6-5.1l0.2-0.1l0.1,0.3c0.4,1.6-1.7,4.5-3.7,5.2
						L347.8,329.1z M351.4,324.2c-1.3,0.9-2.7,2.9-3.1,4.3C349.9,327.7,351.5,325.5,351.4,324.2z M384.6,325.4l-0.5-0.4l2.2-2.5
						l0,0.5c0.1,1.1-0.6,1.6-1.2,2c-0.1,0.1-0.3,0.2-0.4,0.3L384.6,325.4z M385.9,323.6l-0.9,1C385.4,324.2,385.7,324,385.9,323.6z
						 M327.2,318.7l0.3-0.4c0.6-0.8,1.2-1.5,1.9-2.3c1.3-1.6,2.5-3.1,3.8-4.6c4.6-5.4,9.6-11,15.3-16.1c0.8-0.7,1.7-1.4,2.6-2.1
						c0.3-0.2,0.5-0.3,0.9-0.5c0.2-0.1,0.3-0.2,0.5-0.3l0.3-0.2v0.3c0,0.1,0,0.2,0,0.3c0,0.2,0,0.3,0,0.5c-0.1,0.3-0.2,0.6-0.2,0.9
						c-0.2,0.8-0.4,1.6-0.7,2.4c-1.4,3.4-2.9,6.9-4.3,10.3c-1.2,2.9-2.4,5.7-3.6,8.6c-0.3,0.6-0.6,0.9-1.3,1
						c-3.3,0.5-6.7,0.9-9.9,1.4c-1.3,0.2-2.6,0.4-3.9,0.6c-0.2,0-0.4,0-0.6,0.1c-0.1,0-0.3,0-0.5,0L327.2,318.7z M352.4,292.9
						c-0.1,0-0.2,0.1-0.2,0.1c-0.3,0.2-0.6,0.3-0.8,0.5c-0.9,0.6-1.8,1.3-2.6,2c-5.7,5.1-10.7,10.8-15.3,16.1
						c-1.3,1.5-2.5,3-3.8,4.6c-0.5,0.6-1,1.3-1.6,1.9c0,0,0,0,0,0c0.2,0,0.4,0,0.6-0.1c1.3-0.2,2.6-0.4,3.9-0.6
						c3.2-0.5,6.6-1,9.9-1.4c0.6-0.1,0.8-0.3,1-0.8c1.2-2.9,2.4-5.7,3.6-8.6c1.4-3.4,2.9-6.9,4.3-10.3c0.3-0.7,0.5-1.6,0.7-2.3
						c0.1-0.3,0.2-0.6,0.2-0.9C352.4,293.2,352.4,293.1,352.4,292.9C352.4,292.9,352.4,292.9,352.4,292.9z"/>
				</g>
			</g>
			<g>
				<g>
					<path class="st15" d="M523.2,327.1c1.3-1.1,2.7-2.1,4-3.2c1-0.8,2-1.5,3.1-2.3c0.2-0.2,0.6-0.3,0.9-0.3
						c0.6-0.1,0.9,0.3,0.6,0.8c-0.4,0.7-0.9,1.3-1.5,1.8c-0.2,0.2-0.6,0-1,0c0-0.1-0.1-0.1-0.1-0.2c-2.4,2-4.7,3.9-7.1,5.9
						c-0.2,0.2-0.3,0.6-0.5,0.9c2.7,1.1,5.3,1.3,8,0.3c3.2-1.2,6.2-3,9-5c0.5-0.3,1-0.7,1.5-1c0.1-0.1,0.4,0,0.5,0
						c0,0.2,0,0.4-0.1,0.6c0,0.1-0.2,0.2-0.3,0.3c-3.4,2-6.7,4-10.2,5.9c-2.1,1.2-4.5,1.1-6.8,0.6c-2.1-0.5-2.1-0.5-2.8,1.5
						c-1.7,5-3.4,10-4.4,15.2c-0.1,0.6-0.4,1.1,0.2,1.7c0.1,0.1-0.3,0.7-0.5,0.9c-0.4,0.3-0.8,0-0.9-0.4c-0.1-0.5-0.1-1.1,0-1.6
						c0.6-4.6,2.1-9,3.5-13.4c0.4-1.3,0.8-2.6,1.2-3.8c-0.4-0.3-1-0.5-1-0.7c0.1-0.4,0.3-1,0.7-1.2c1.4-0.9,2-2.4,2.4-3.9
						c-1.4,0.8-2.7,1.6-4.2,2.3c-1,0.5-2.2,0.7-3.3,0.9c-1.1,0.1-1.7-0.5-1.8-1.6c-0.1-1,0-2,0-2.9c-0.8,0.8-1.6,1.5-2.4,2.3
						c-0.7,0.6-1.3,1.3-2,1.8c-0.5,0.3-1.2,0.4-1.7,0.3c-0.7-0.2-0.5-1-0.4-1.6c0-0.4,0.2-0.8,0.3-1.3c-0.1,0-0.3,0-0.3,0.1
						c-3.5,1.9-7,3.8-10.5,5.6c-0.5,0.3-0.7,0.5-0.4,1.2c1.4,3.7,1.5,7.5-0.2,11.2c-3.4,7.4-8.9,12.4-16.6,14.9
						c-1.5,0.5-3.2,0.6-4.7,0.6c-3.7-0.1-5.5-2.6-4.6-6.2c0.3-1.1,0.9-2.2,1.5-3.2c2.2-3.6,5.3-6.4,8.6-8.8c4.3-3.1,8.7-5.9,13-8.8
						c0.3-0.2,0.7-0.5,1.2-0.7c-0.2-0.3-0.3-0.7-0.5-0.9c-0.7-0.9-1.5-1.8-2.3-2.6c-1.1-1.1-1.2-2.2,0-3.4c0.9-0.9,1.7-1.7,2.5-2.6
						c0.3-0.3,0.5-0.7,0.7-1.1c-2,0.5-3.7,1.4-5.3,2.6c-0.5,0.4-1,0.8-1.5,1.2c-0.2,0.2-0.6,0.3-0.8,0.2c-0.6-0.4-1.1,0-1.6,0.2
						c-2.2,0.8-4.5,1.2-6.8,0.8c-0.5-0.1-0.8,0-0.9,0.6c-0.4,1.3-1,2.4-2,3.4c-0.3,0.3-0.7,0.6-1.1,0.7c-1.1,0.3-1.9-0.3-1.7-1.5
						c0-0.4,0.2-0.9,0.3-1.3c0.1-0.4,0.3-0.8,0.6-1.5c-0.4,0.3-0.6,0.5-0.9,0.7c-6.8,5.6-14.5,9.5-23.1,11.3
						c-3.3,0.7-6.6,0.7-10-0.2c-0.5,1.5-1.1,3-1.6,4.5c-2,5.8-2.3,5.8-1.8,6.7c0.1,0.2-0.2,0.9-0.5,1.2c-0.4,0.4-1.1,0.2-1.1-0.5
						c0-0.7,0-2.1,2.4-8.6c0.4-1.2,0.8-2.3,1.3-3.5c-0.6-0.4-1-0.2-1.5,0.1c-1,0.6-2,1.3-3.1,1.8c-0.9,0.4-2,0.6-3,0.6
						c-1.2,0.1-1.9-0.9-1.6-2.1c0.3-1.3,1.3-2.2,2.5-2.3c1.4-0.1,2.9,0.1,4.4,0.2c0.5,0,1,0,1.4-0.3c1.5-1,2.6-2.2,3.2-4
						c4.2-11.4,8.5-22.7,12.8-34c0.7-1.8,1.5-3.6,2.3-5.5c0.3-0.6,0.5-1.3,0.7-2c0-0.1,0.1-0.3,0.1-0.4c0.3-0.8,1-1.4,1.4-1.2
						c0.9,0.4,0.4,1.2,0.2,1.7c-1.1,2.5-2.3,5-3.5,7.5c-3.4,7.4-6.2,15.1-9,22.8c-1.2,3.3-2.4,6.6-3.6,9.9c-0.1,0.3-0.2,0.7-0.3,1
						c0.1,0,0.1,0.1,0.2,0.1c0.5-0.4,1-0.9,1.5-1.3c4-4.3,8-8.6,12-12.9c5.2-5.6,10.3-11.3,16.1-16.3c1.5-1.3,3-2.6,4.5-3.8
						c0.4-0.3,1-0.5,1.5-0.5c0.2,0,0.5,0.3,0.6,0.5c0.1,0.1-0.1,0.5-0.3,0.6c-1.2,0.9-2.5,1.7-3.6,2.6c-5.2,4.2-9.7,9.1-14.3,13.9
						c-5.2,5.5-10.3,11-15.5,16.6c-0.8,0.9-1.7,1.7-2.6,2.4c-1.1,0.8-1.6,1.9-2,3.4c1.2,0.2,2.4,0.4,3.6,0.5c4.9,0.3,9.5-0.9,14-2.8
						c4.9-2.1,9.7-4.3,13.8-7.8c1.6-1.4,3-3.1,4.6-4.6c0.4-0.4,0.8-0.8,1.2-1.1c0.2-0.1,0.7-0.2,0.9,0c0.2,0.2,0.3,0.6,0.2,0.9
						c-0.1,0.7-0.8,1.2-0.3,2c0.2,0.3,0.4,0.7,0.7,0.8c1.7,0.5,3.4,0.2,5.1-0.2c1.3-0.4,2.6-0.8,3.7-1.8c1.5-1.2,3.4-2.1,5.1-3.1
						c0.6-0.3,1.3-0.5,2-0.6c1.2-0.1,1.9,0.7,1.4,1.8c-0.2,0.6-0.7,1.2-1.1,1.7c-0.9,1-1.8,1.8-2.8,2.7c-0.5,0.5-0.6,1-0.1,1.6
						c1.1,1.2,2.1,2.4,3.3,3.7c1.3-0.7,2.6-1.5,4-2.2c2.6-1.4,5.3-2.7,7.9-4c0.5-0.3,1-0.8,1.5-1.2c0.6-0.6,1-1.3,1.6-1.8
						c0.5-0.5,1.2-0.9,1.9-1.1c1-0.3,1.7,0.3,1.5,1.4c0,0.3-0.1,0.5-0.2,0.9c0.9-0.1,1,0.5,1,1.2c0,0.8-0.1,1.6-0.1,2.4
						c0,1.3,0.4,1.8,1.7,1.5c1.2-0.2,2.4-0.7,3.5-1.3c0.9-0.4,1.9-0.7,2.3-1.8c0-0.1,0.2-0.1,0.3-0.1c0.8-0.2,1.4-0.7,1.7-1.5
						c2.3-5.6,4.7-11.1,8-16.2c1.2-1.8,2.6-3.6,4-5.2c0.8-0.9,1.8-1.5,2.9-2.1c1-0.6,2,0.1,1.9,1.3c-0.1,0.7-0.2,1.5-0.6,2.2
						c-1.9,4-4.4,7.7-7.1,11.2c-2.5,3.1-5.1,6.1-7.6,9.2c-0.6,0.7-0.9,1.7-1.3,2.6C523.1,327,523.1,327.1,523.2,327.1z M493.8,333.3
						c-0.4,0.2-0.5,0.2-0.6,0.3c-4.3,2.8-8.6,5.6-12.8,8.6c-3.7,2.6-7.2,5.6-9.5,9.6c-0.5,0.9-1,1.9-1.2,3c-0.6,2.5,0.4,4,3,4.5
						c1.9,0.4,3.7,0,5.5-0.6c6.4-2.3,11.2-6.5,14.6-12.5c1.6-2.9,2.3-5.9,1.9-9.2C494.6,335.7,494.2,334.6,493.8,333.3z
						 M525.2,321.8c0.3-0.3,0.5-0.4,0.6-0.6c3.5-4,6.8-8.1,9.6-12.6c1.1-1.7,2-3.6,2.9-5.4c0.2-0.4,0.1-1,0.2-1.4
						c-0.5,0.2-1.1,0.3-1.5,0.6c-1.4,1.5-2.9,2.9-4.1,4.6c-3.2,4.4-5.4,9.3-7.6,14.3C525.3,321.4,525.3,321.5,525.2,321.8z
						 M434.6,338.2c0-0.1,0-0.1-0.1-0.2c-0.7-0.1-1.4-0.2-2.2-0.3c-1,0-2.1,0-2.8,0.8c-0.3,0.4-0.4,1.1-0.4,1.6
						c0,0.2,0.8,0.4,1.2,0.4C432,340.3,433.3,339.2,434.6,338.2z M473.1,330.2c1.4-0.4,2.6-2.1,2.6-3.6c-0.4,0-0.7,0-1.2-0.1
						C473.9,327.6,473.1,328.7,473.1,330.2z M507.5,327.9c0.1,0.1,0.1,0.1,0.2,0.2c0.6-0.6,1.4-1,1.9-1.7c0.5-0.7,0.8-1.6,1.2-2.3
						c0.1-0.3,0.2-0.6,0.3-0.9C509.4,324.5,508,325.9,507.5,327.9z"/>
				</g>
				<g>
					<path class="st15" d="M473.8,360.4c-0.1,0-0.2,0-0.4,0c-1.9,0-3.3-0.7-4.2-1.8c-0.9-1.2-1.1-2.8-0.6-4.6c0.3-1,0.7-2,1.5-3.3
						c1.9-3.1,4.7-5.9,8.7-8.8c3-2.2,6.1-4.2,9.2-6.2c1.3-0.9,2.6-1.7,3.9-2.6c0.2-0.2,0.5-0.3,0.7-0.5c0.1-0.1,0.2-0.1,0.3-0.2
						c0-0.1-0.1-0.1-0.1-0.2c-0.1-0.2-0.2-0.4-0.3-0.6l-0.3-0.3c-0.6-0.8-1.3-1.5-2-2.3c-0.6-0.6-0.9-1.2-0.9-1.8
						c0-0.6,0.3-1.2,0.9-1.8c0.8-0.8,1.6-1.7,2.5-2.6c0.2-0.2,0.3-0.4,0.5-0.7c-1.6,0.5-3.2,1.2-4.8,2.4c-0.3,0.2-0.5,0.4-0.7,0.6
						c-0.2,0.2-0.5,0.4-0.8,0.6c0,0-0.6,0.5-1,0.3c-0.4-0.2-0.7-0.1-1.1,0.1c-0.1,0-0.2,0.1-0.3,0.1c-2.6,0.9-4.8,1.2-6.9,0.8
						c-0.4-0.1-0.6,0-0.7,0.4c-0.4,1.3-1.1,2.5-2.1,3.5c-0.4,0.4-0.8,0.6-1.2,0.7c-0.6,0.2-1.1,0.1-1.5-0.2
						c-0.4-0.3-0.6-0.9-0.5-1.5c0-0.4,0.1-0.8,0.3-1.4c0.1-0.3,0.2-0.5,0.3-0.8l-0.3,0.2c-7.1,5.8-14.9,9.6-23.2,11.3
						c-3.6,0.7-6.8,0.7-9.9-0.1c-0.2,0.4-0.3,0.9-0.5,1.3c-0.4,1.1-0.7,2.1-1.1,3.1c-0.6,1.7-1,2.8-1.3,3.7
						c-0.8,2.2-0.8,2.3-0.5,2.8c0.2,0.4-0.3,1.1-0.5,1.4c-0.2,0.2-0.6,0.3-0.9,0.2c-0.3-0.1-0.6-0.4-0.6-0.8c0-0.5-0.1-1.8,2.4-8.7
						l1.2-3.3c-0.4-0.2-0.7-0.1-1.2,0.2c-0.2,0.1-0.4,0.2-0.6,0.4c-0.8,0.5-1.6,1.1-2.5,1.4c-0.8,0.3-1.9,0.6-3.1,0.6
						c-0.6,0-1.1-0.2-1.5-0.6c-0.4-0.5-0.5-1.1-0.4-1.8c0.3-1.4,1.3-2.3,2.7-2.4c0.9-0.1,1.9,0,2.8,0.1c0.5,0,1.1,0.1,1.6,0.1
						c0.6,0,1-0.1,1.3-0.2c1.5-1,2.5-2.2,3.1-3.9c3.8-10.4,7.8-20.9,11.7-31l1.1-3c0.4-1.1,0.9-2.3,1.4-3.4c0.3-0.7,0.6-1.4,0.9-2.1
						c0.2-0.5,0.3-0.9,0.5-1.4c0.1-0.2,0.1-0.4,0.2-0.6c0-0.1,0-0.1,0-0.2c0-0.1,0-0.2,0.1-0.2c0.2-0.6,0.7-1.2,1.1-1.3
						c0.2-0.1,0.4-0.1,0.6,0c1,0.5,0.6,1.3,0.3,1.8c0,0.1-0.1,0.1-0.1,0.2c-1,2.2-2,4.5-3.1,6.7l-0.4,0.8c-3.5,7.4-6.3,15.2-9,22.8
						c-0.7,1.9-1.4,3.9-2.1,5.8c-0.5,1.4-1,2.7-1.5,4.1c-0.1,0.2-0.2,0.4-0.2,0.7l0,0c0.1-0.1,0.2-0.1,0.2-0.2
						c0.3-0.3,0.7-0.6,1-0.9l0.6-0.7c3.7-4,7.6-8.1,11.4-12.2l1.4-1.5c4.6-5,9.4-10.2,14.7-14.8c1.7-1.4,3.1-2.7,4.5-3.8
						c0.4-0.3,1-0.5,1.6-0.6c0.3-0.1,0.7,0.4,0.8,0.7c0.1,0.3-0.1,0.7-0.3,0.9c-0.5,0.4-1,0.7-1.5,1.1c-0.7,0.5-1.4,1-2.1,1.6
						c-5,4-9.4,8.8-13.8,13.3l-0.5,0.6c-2.3,2.5-4.7,5-7,7.5c-2.8,3-5.7,6-8.5,9.1c-1,1.1-1.8,1.8-2.6,2.5c-0.9,0.7-1.5,1.7-1.8,3
						c0.3,0,0.6,0.1,0.9,0.1c0.8,0.1,1.6,0.3,2.5,0.3c4.4,0.2,8.8-0.6,13.9-2.8c4.4-1.9,9.5-4.2,13.8-7.7c1.1-0.9,2.1-2,3.1-3.1
						c0.5-0.5,1-1,1.5-1.5c0.1-0.1,0.1-0.1,0.2-0.2c0.3-0.3,0.7-0.7,1.1-0.9c0.3-0.2,0.9-0.2,1.1,0c0.3,0.2,0.3,0.8,0.3,1.1
						c0,0.2-0.1,0.5-0.2,0.7c-0.2,0.4-0.3,0.8-0.1,1.2c0.2,0.4,0.4,0.6,0.6,0.7c1.8,0.5,3.5,0.2,5-0.2c1.2-0.3,2.5-0.8,3.7-1.7
						c1.3-1,2.8-1.8,4.3-2.6c0.3-0.2,0.6-0.3,0.9-0.5c0.7-0.4,1.5-0.5,2.1-0.6c0.6-0.1,1.2,0.1,1.5,0.5c0.3,0.4,0.4,1,0.1,1.6
						c-0.2,0.6-0.6,1.2-1.1,1.7c-0.7,0.7-1.4,1.4-2.1,2.1c-0.2,0.2-0.5,0.4-0.7,0.7c-0.4,0.4-0.5,0.8-0.1,1.3
						c0.7,0.9,1.5,1.7,2.3,2.6l0.9,1c0.3-0.2,0.7-0.4,1-0.6c0.9-0.5,1.9-1.1,2.9-1.6c1.2-0.6,2.4-1.2,3.6-1.8
						c1.4-0.7,2.9-1.5,4.4-2.2c0.5-0.3,1-0.7,1.4-1.2c0.2-0.3,0.5-0.5,0.7-0.8c0.3-0.4,0.6-0.8,1-1.1c0.6-0.5,1.3-0.9,1.9-1.1
						c0.5-0.2,1-0.1,1.3,0.2c0.4,0.3,0.5,0.8,0.4,1.4c0,0.2-0.1,0.4-0.1,0.6c0,0,0,0,0,0.1c0.3,0,0.5,0.1,0.6,0.2
						c0.3,0.3,0.3,0.8,0.3,1.1c0,0.4,0,0.8-0.1,1.2c0,0.4-0.1,0.8-0.1,1.2c0,0.7,0.1,1.1,0.3,1.2c0.2,0.2,0.6,0.2,1.1,0.1
						c1-0.2,2.1-0.6,3.4-1.3c0.2-0.1,0.3-0.2,0.5-0.2c0.7-0.3,1.4-0.6,1.7-1.4c0.1-0.2,0.2-0.2,0.4-0.2l0.1,0
						c0.8-0.2,1.3-0.6,1.6-1.4c2.2-5.4,4.7-11,8-16.3c1-1.6,2.3-3.3,4.1-5.2c0.8-0.9,1.9-1.5,2.9-2.1c0.5-0.3,1.1-0.3,1.5,0
						c0.5,0.3,0.7,0.9,0.6,1.5c-0.1,0.8-0.3,1.6-0.6,2.3c-1.7,3.6-3.9,7.2-7.1,11.2c-1.4,1.7-2.8,3.4-4.2,5.1
						c-1.1,1.3-2.3,2.7-3.4,4.1c-0.4,0.5-0.6,1.1-0.9,1.7c-0.1,0.2-0.2,0.4-0.3,0.6c0.3-0.3,0.7-0.5,1-0.8c0.9-0.7,1.9-1.5,2.8-2.2
						c1-0.7,2-1.5,3.1-2.3c0.3-0.2,0.7-0.3,1-0.3c0.4,0,0.7,0.1,0.8,0.3c0.1,0.2,0.1,0.5,0,0.8c-0.4,0.7-0.9,1.3-1.5,1.9
						c-0.2,0.2-0.5,0.1-0.8,0.1c-0.1,0-0.2,0-0.3,0l-0.1,0l0-0.1l-1.3,1.1c-1.8,1.5-3.7,3.1-5.6,4.6c-0.1,0.1-0.2,0.3-0.3,0.5
						c0,0,0,0.1-0.1,0.1c2.8,1.1,5.3,1.1,7.7,0.2c3.4-1.3,6.4-3.2,9-4.9l0.3-0.2c0.4-0.3,0.8-0.5,1.2-0.8c0.1-0.1,0.3-0.1,0.5-0.1
						c0.1,0,0.1,0,0.2,0l0.2,0l0,0.2c0,0.1,0,0.1,0,0.2c0,0.2,0,0.3-0.1,0.5c-0.1,0.2-0.2,0.3-0.4,0.4c-1,0.6-2,1.2-2.9,1.7
						c-2.4,1.4-4.8,2.9-7.3,4.2c-1.9,1-4.2,1.2-6.9,0.6c-0.9-0.2-1.5-0.3-1.7-0.2c-0.3,0.2-0.5,0.7-0.8,1.6
						c-1.9,5.6-3.4,10.3-4.4,15.1c0,0.1,0,0.2-0.1,0.3c-0.1,0.5-0.2,0.8,0.2,1.2c0,0,0.1,0.1,0.1,0.2c0,0.2-0.3,0.8-0.6,1
						c-0.2,0.2-0.5,0.2-0.7,0.1c-0.2-0.1-0.4-0.3-0.5-0.6c-0.1-0.5-0.1-1,0-1.6c0.7-4.8,2.2-9.4,3.5-13.4c0.3-0.9,0.6-1.8,0.9-2.6
						l0.3-1c-0.1-0.1-0.2-0.1-0.3-0.2c-0.4-0.2-0.7-0.4-0.7-0.6c0.1-0.5,0.3-1.1,0.8-1.4c1.3-0.8,1.8-2,2.2-3.3
						c-0.3,0.2-0.5,0.3-0.8,0.5c-1,0.6-1.9,1.1-3,1.6c-1,0.4-2.2,0.7-3.4,0.9c-0.6,0.1-1,0-1.4-0.3c-0.4-0.3-0.6-0.8-0.7-1.5
						c-0.1-0.7,0-1.4,0-2c0-0.1,0-0.3,0-0.4l-0.4,0.4c-0.6,0.5-1.1,1.1-1.7,1.6c-0.2,0.2-0.3,0.3-0.5,0.5c-0.5,0.5-1,0.9-1.5,1.3
						c-0.5,0.3-1.3,0.5-1.9,0.3c-0.8-0.2-0.7-1-0.6-1.5c0-0.1,0-0.2,0-0.3c0-0.3,0.1-0.6,0.2-0.9c0,0,0-0.1,0-0.1
						c-1.2,0.6-2.4,1.3-3.6,1.9c-2.3,1.2-4.6,2.5-6.9,3.7c-0.4,0.2-0.5,0.4-0.3,0.9c1.5,4,1.4,7.8-0.2,11.3c-3.4,7.5-9,12.5-16.8,15
						C476.9,360.2,475.4,360.4,473.8,360.4z M493.8,321.6l-0.1,0.4c-0.2,0.5-0.4,0.9-0.7,1.2c-0.9,1-1.7,1.8-2.5,2.6
						c-0.5,0.5-0.8,1-0.8,1.5c0,0.5,0.3,1,0.8,1.5c0.7,0.7,1.4,1.5,2.1,2.3l0.3,0.3c0.2,0.2,0.3,0.4,0.4,0.7
						c0.1,0.1,0.1,0.2,0.2,0.3l0.1,0.2l-0.2,0.1c-0.1,0.1-0.3,0.2-0.4,0.3c-0.3,0.2-0.5,0.3-0.7,0.5c-1.3,0.9-2.6,1.7-3.9,2.6
						c-3,2-6.2,4.1-9.1,6.2c-4,2.8-6.7,5.6-8.6,8.7c-0.7,1.2-1.2,2.2-1.4,3.2c-0.5,1.7-0.3,3.2,0.5,4.2c0.8,1.1,2.1,1.6,3.9,1.7
						c1.8,0,3.3-0.2,4.7-0.6c7.6-2.4,13.2-7.4,16.5-14.8c1.6-3.4,1.6-7.1,0.1-11c-0.3-0.7-0.1-1.1,0.5-1.4c2.3-1.2,4.6-2.5,6.9-3.7
						c1.2-0.6,2.4-1.3,3.6-1.9c0.1,0,0.2-0.1,0.3-0.1c0,0,0.1,0,0.1,0l0.3-0.1l-0.1,0.3c0,0.2-0.1,0.3-0.1,0.4
						c-0.1,0.3-0.1,0.6-0.2,0.8c0,0.1,0,0.2,0,0.3c-0.1,0.6-0.1,0.9,0.3,1.1c0.4,0.1,1.1,0,1.5-0.3c0.5-0.3,1-0.8,1.5-1.3
						c0.2-0.2,0.3-0.3,0.5-0.5c0.6-0.5,1.1-1.1,1.7-1.6l1.1-1v0.5c0,0.3,0,0.6,0,0.9c0,0.7,0,1.3,0,2c0,0.5,0.2,1,0.5,1.2
						c0.3,0.2,0.6,0.3,1.1,0.3c1.2-0.1,2.3-0.4,3.3-0.9c1-0.4,2-1,2.9-1.6c0.4-0.2,0.8-0.5,1.2-0.7l0.4-0.2l-0.1,0.5
						c-0.4,1.5-1,3-2.5,4c-0.3,0.2-0.5,0.7-0.6,1.1c0.1,0.1,0.3,0.2,0.5,0.3c0.1,0.1,0.3,0.2,0.4,0.3l0.1,0.1l-0.4,1.3
						c-0.3,0.9-0.6,1.7-0.9,2.6c-1.3,4-2.9,8.6-3.5,13.3c-0.1,0.6-0.1,1.1,0,1.5c0,0.2,0.1,0.3,0.2,0.3c0.1,0,0.2,0,0.4-0.1
						c0.2-0.1,0.4-0.5,0.4-0.7c-0.5-0.5-0.3-1-0.2-1.5c0-0.1,0-0.2,0.1-0.3c1-4.9,2.4-9.6,4.4-15.2c0.7-2.1,0.8-2.1,3-1.6
						c2.7,0.6,4.8,0.4,6.6-0.6c2.4-1.3,4.9-2.8,7.2-4.2c1-0.6,1.9-1.2,2.9-1.7c0.1,0,0.2-0.1,0.2-0.2c0-0.1,0-0.2,0.1-0.3
						c-0.1,0-0.2,0-0.2,0c-0.4,0.2-0.8,0.5-1.2,0.7l-0.3,0.2c-2.6,1.7-5.7,3.7-9.1,5c-2.6,1-5.2,0.9-8.2-0.3l-0.2-0.1l0.1-0.2
						c0.1-0.1,0.1-0.2,0.1-0.3c0.1-0.2,0.2-0.5,0.4-0.6c1.8-1.5,3.7-3.1,5.6-4.6l1.7-1.4l0.1,0.4c0.1,0,0.2,0,0.2,0
						c0.1,0,0.4,0.1,0.4,0c0.6-0.6,1-1.2,1.4-1.8c0.1-0.2,0.1-0.3,0.1-0.4c-0.1-0.1-0.2-0.2-0.5-0.1c-0.2,0-0.5,0.1-0.8,0.3
						c-1.1,0.8-2.1,1.5-3.1,2.2c-0.9,0.7-1.9,1.5-2.8,2.2c-0.4,0.3-0.8,0.6-1.2,1l-0.1,0.1l-0.5-0.3l0.1-0.2
						c0.1-0.3,0.3-0.5,0.4-0.8c0.3-0.6,0.6-1.2,1-1.8c1.1-1.4,2.3-2.8,3.4-4.1c1.4-1.6,2.9-3.3,4.2-5.1c3.2-4,5.4-7.5,7.1-11.1
						c0.3-0.6,0.5-1.4,0.5-2.1c0-0.5-0.1-0.9-0.5-1.1c-0.3-0.2-0.7-0.2-1.1,0c-1,0.6-2.1,1.2-2.8,2c-1.7,1.9-3,3.6-4,5.2
						c-3.3,5.2-5.8,10.8-8,16.2c-0.4,0.9-1,1.4-1.9,1.7l-0.1,0c0,0-0.1,0-0.1,0c-0.4,0.9-1.2,1.3-1.9,1.6c-0.2,0.1-0.3,0.1-0.5,0.2
						c-1.3,0.7-2.4,1.1-3.5,1.3c-0.7,0.1-1.1,0.1-1.4-0.2c-0.3-0.3-0.5-0.8-0.5-1.6c0-0.4,0-0.8,0.1-1.2c0-0.4,0.1-0.8,0.1-1.2
						c0-0.3,0-0.7-0.2-0.8c-0.1-0.1-0.3-0.2-0.6-0.1l-0.3,0l0.1-0.3c0-0.1,0.1-0.2,0.1-0.3c0.1-0.2,0.1-0.4,0.1-0.5
						c0.1-0.5,0-0.8-0.3-1.1c-0.2-0.2-0.6-0.2-1-0.1c-0.6,0.2-1.3,0.6-1.8,1c-0.3,0.3-0.6,0.6-0.9,1c-0.2,0.3-0.4,0.5-0.7,0.8
						c-0.5,0.5-0.9,1-1.5,1.3c-1.4,0.8-2.9,1.5-4.4,2.2c-1.2,0.6-2.4,1.2-3.6,1.8c-1,0.5-1.9,1-2.8,1.6c-0.4,0.2-0.8,0.5-1.2,0.7
						l-0.1,0.1l-1.1-1.3c-0.8-0.9-1.5-1.7-2.3-2.6c-0.5-0.6-0.5-1.3,0.1-1.8c0.2-0.2,0.5-0.4,0.7-0.7c0.7-0.7,1.4-1.3,2.1-2.1
						c0.5-0.5,0.9-1.1,1.1-1.6c0.2-0.4,0.1-0.9-0.1-1.2c-0.2-0.3-0.6-0.4-1.1-0.4c-0.6,0.1-1.3,0.2-2,0.5c-0.3,0.2-0.6,0.3-0.9,0.5
						c-1.4,0.8-2.9,1.6-4.2,2.6c-1.3,1-2.6,1.5-3.8,1.8c-1.5,0.4-3.3,0.8-5.2,0.2c-0.3-0.1-0.6-0.4-0.8-0.8
						c-0.3-0.6-0.1-1.1,0.1-1.5c0.1-0.2,0.2-0.4,0.2-0.6c0-0.2,0-0.6-0.1-0.7c-0.1-0.1-0.5-0.1-0.7,0c-0.4,0.2-0.7,0.6-1,0.9
						c-0.1,0.1-0.1,0.1-0.2,0.2c-0.5,0.5-1,1-1.4,1.5c-1,1.1-2,2.2-3.1,3.1c-4.3,3.6-9.4,5.9-13.9,7.8c-5.1,2.2-9.6,3.1-14.1,2.8
						c-0.8,0-1.7-0.2-2.5-0.3c-0.4-0.1-0.8-0.1-1.1-0.2l-0.2,0l0-0.2c0.3-1.6,1-2.6,2-3.5c0.8-0.6,1.6-1.4,2.6-2.4
						c2.8-3,5.7-6,8.5-9.1c2.3-2.5,4.7-5,7-7.5l0.5-0.6c4.3-4.6,8.8-9.4,13.8-13.4c0.7-0.6,1.4-1.1,2.1-1.6c0.5-0.3,1-0.7,1.5-1.1
						c0.1-0.1,0.2-0.3,0.2-0.4c-0.1-0.2-0.3-0.4-0.4-0.4c-0.5,0.1-1.1,0.2-1.4,0.5c-1.5,1.2-2.9,2.4-4.5,3.8
						c-5.2,4.6-10,9.8-14.7,14.8l-1.4,1.5c-3.8,4.1-7.6,8.2-11.4,12.2l-0.6,0.7c-0.3,0.3-0.7,0.6-1,0.9c-0.2,0.1-0.3,0.3-0.5,0.4
						l-0.1,0.1l-0.4-0.3l0.2-0.5c0.1-0.2,0.2-0.5,0.2-0.7c0.5-1.4,1-2.7,1.5-4.1c0.7-1.9,1.4-3.9,2.1-5.8c2.7-7.5,5.5-15.4,9-22.8
						l0.4-0.8c1-2.2,2.1-4.4,3.1-6.7c0-0.1,0.1-0.1,0.1-0.2c0.3-0.6,0.4-1-0.2-1.3c-0.1,0-0.2,0-0.3,0c-0.3,0.1-0.7,0.6-0.9,1.1
						c0,0.1,0,0.1-0.1,0.2c0,0.1,0,0.1-0.1,0.2c-0.1,0.2-0.1,0.4-0.2,0.6c-0.2,0.5-0.3,1-0.5,1.4c-0.3,0.7-0.6,1.4-0.9,2.1
						c-0.5,1.1-1,2.2-1.4,3.3l-1.1,3c-3.9,10.2-7.9,20.7-11.7,31c-0.6,1.7-1.7,3-3.3,4.1c-0.4,0.3-1.1,0.3-1.5,0.3
						c-0.5,0-1.1-0.1-1.6-0.1c-0.9-0.1-1.8-0.2-2.7-0.1c-1.2,0.1-2.1,0.9-2.4,2.1c-0.1,0.5,0,1.1,0.3,1.4c0.3,0.3,0.7,0.5,1.1,0.4
						c1.2-0.1,2.2-0.3,3-0.6c0.9-0.3,1.7-0.9,2.4-1.4c0.2-0.1,0.4-0.3,0.6-0.4c0.5-0.3,1-0.6,1.7-0.1l0.1,0.1l-1.3,3.6
						c-2.2,6-2.4,7.7-2.4,8.5c0,0.3,0.2,0.4,0.3,0.5c0.2,0.1,0.3,0,0.4-0.1c0.3-0.3,0.5-0.8,0.5-0.9c-0.4-0.7-0.3-0.9,0.5-3.1
						c0.3-0.9,0.7-2,1.3-3.7c0.3-1,0.7-2.1,1.1-3.1c0.2-0.5,0.3-1,0.5-1.4l0.1-0.2l0.2,0c3.1,0.8,6.3,0.9,9.9,0.2
						c8.2-1.7,16-5.5,23-11.2l1.4-1.2l-0.3,0.7c-0.1,0.2-0.2,0.4-0.2,0.6c-0.1,0.3-0.2,0.6-0.3,0.9c-0.1,0.5-0.2,0.9-0.3,1.3
						c-0.1,0.5,0.1,0.9,0.4,1.1c0.3,0.2,0.7,0.3,1.1,0.1c0.4-0.1,0.7-0.3,1-0.7c0.9-0.9,1.6-2,1.9-3.3c0.2-0.6,0.5-0.8,1.1-0.7
						c2.1,0.4,4.2,0.1,6.7-0.8c0.1,0,0.2-0.1,0.3-0.1c0.4-0.2,0.9-0.4,1.5,0c0.1,0,0.3-0.1,0.5-0.2c0.3-0.2,0.5-0.4,0.7-0.6
						c0.2-0.2,0.5-0.4,0.8-0.6c1.8-1.3,3.5-2.2,5.4-2.6L493.8,321.6z M474.3,359.6c-0.5,0-1.1-0.1-1.6-0.2c-1.3-0.3-2.3-0.8-2.8-1.6
						c-0.5-0.8-0.6-1.9-0.3-3.2c0.2-1,0.6-2,1.2-3c2.4-4.2,6-7.1,9.6-9.7c2.9-2.1,6-4.1,9-6c1.3-0.8,2.6-1.7,3.9-2.5
						c0.1,0,0.1-0.1,0.3-0.1c0.1,0,0.2-0.1,0.3-0.1l0.2-0.1l0.1,0.2c0.1,0.4,0.2,0.8,0.3,1.2c0.2,0.8,0.5,1.6,0.6,2.4
						c0.4,3.3-0.3,6.4-1.9,9.3c-3.4,6.1-8.4,10.3-14.7,12.6C476.8,359.3,475.5,359.6,474.3,359.6z M493.7,333.6c0,0-0.1,0-0.1,0
						c-0.1,0-0.2,0.1-0.2,0.1c-1.3,0.8-2.6,1.7-3.9,2.5c-3,1.9-6,3.9-8.9,6c-3.5,2.5-7.1,5.4-9.4,9.5c-0.6,1-1,2-1.2,2.9
						c-0.3,1.2-0.2,2.1,0.3,2.9c0.5,0.7,1.3,1.2,2.5,1.5c1.6,0.3,3.3,0.1,5.4-0.6c6.2-2.2,11.1-6.4,14.5-12.4
						c1.6-2.8,2.2-5.9,1.9-9.1c-0.1-0.8-0.3-1.6-0.6-2.4C493.9,334.2,493.8,333.9,493.7,333.6z M430.2,340.7c-0.4,0-1-0.2-1.2-0.4
						c-0.1-0.1-0.1-0.1-0.1-0.2c0-0.3,0-1.2,0.4-1.7c0.8-0.8,1.9-0.9,3-0.8c0.5,0,1,0.1,1.5,0.2c0.2,0,0.4,0.1,0.7,0.1l0.1,0
						l0.1,0.5l-0.1,0.1c-0.2,0.2-0.5,0.3-0.7,0.5c-1.1,0.8-2.2,1.6-3.6,1.8C430.3,340.7,430.3,340.7,430.2,340.7z M429.3,340
						c0.2,0.1,0.7,0.3,1,0.2c1.3-0.1,2.4-0.9,3.4-1.7c0.2-0.1,0.4-0.3,0.5-0.4c-0.2,0-0.3,0-0.5-0.1c-0.5-0.1-1-0.1-1.5-0.2
						c-1,0-2,0-2.7,0.7C429.4,339,429.3,339.6,429.3,340z M472.9,330.4l0-0.3c0-1.3,0.6-2.3,1.1-3.2c0.1-0.2,0.2-0.4,0.3-0.6
						l0.1-0.1l1.5,0.1l0,0.2c0,1.6-1.3,3.4-2.7,3.8L472.9,330.4z M474.7,326.6c-0.1,0.2-0.2,0.3-0.3,0.5c-0.5,0.8-1,1.7-1.1,2.8
						c1.1-0.5,2.1-1.9,2.2-3.2L474.7,326.6z M507.7,328.4l-0.4-0.4l0-0.1c0.6-2.1,2.1-3.6,3.7-4.8l0.6-0.5l-0.3,0.7
						c0,0.1-0.1,0.2-0.1,0.3c-0.1,0.2-0.1,0.4-0.2,0.6c-0.1,0.2-0.2,0.4-0.3,0.7c-0.2,0.6-0.5,1.2-0.9,1.7c-0.4,0.5-0.9,0.9-1.3,1.3
						c-0.2,0.2-0.4,0.3-0.6,0.5L507.7,328.4z M510.6,323.8c-1.3,1.1-2.4,2.3-2.9,4c0.2-0.1,0.3-0.3,0.5-0.4c0.5-0.4,0.9-0.7,1.3-1.2
						c0.4-0.5,0.6-1.1,0.8-1.6c0.1-0.2,0.2-0.5,0.3-0.7C510.6,323.9,510.6,323.8,510.6,323.8z M524.9,322.5l0.2-0.6
						c0-0.1,0-0.2,0.1-0.3c0-0.1,0-0.2,0.1-0.3c1.9-4.5,4.3-9.7,7.6-14.4c1-1.4,2.3-2.7,3.5-3.9c0.2-0.2,0.5-0.5,0.7-0.7
						c0.3-0.3,0.7-0.4,1.1-0.5c0.2,0,0.3-0.1,0.5-0.2l0.3-0.1l0,0.3c0,0.1,0,0.3,0,0.5c0,0.4,0,0.7-0.2,1.1l-0.3,0.7
						c-0.8,1.6-1.6,3.3-2.6,4.8c-2.5,3.9-5.4,7.8-9.6,12.7c-0.1,0.1-0.2,0.2-0.3,0.3c-0.1,0.1-0.2,0.1-0.3,0.2L524.9,322.5z
						 M538.3,302.1c-0.1,0-0.1,0-0.2,0.1c-0.4,0.1-0.7,0.2-0.9,0.4c-0.2,0.2-0.4,0.5-0.7,0.7c-1.2,1.2-2.4,2.5-3.4,3.9
						c-3.3,4.6-5.6,9.7-7.5,14.1c0,0,0,0,0.1-0.1c4.2-4.8,7.2-8.7,9.6-12.6c1-1.5,1.8-3.2,2.6-4.8l0.3-0.7c0.1-0.2,0.1-0.6,0.1-0.9
						C538.3,302.2,538.3,302.1,538.3,302.1z"/>
				</g>
			</g>
		</g>
	</g>
</g>
</svg>
